<svg width="861" height="641" viewBox="0 0 861 641" fill="none" xmlns="http://www.w3.org/2000/svg">
<g clip-path="url(#clip0)">
<path d="M306.443 318.004C306.803 315.509 307.696 313.029 308.99 310.955C316.066 299.592 330.946 299.864 338.689 310.128C340.681 312.767 342.196 316.043 342.551 319.606C342.905 323.165 341.97 327 339.762 329.372C337.554 331.739 334.037 332.314 331.603 330.312C330.592 329.48 329.616 328.304 329 327.159C328.343 325.927 327.68 324.654 326.315 324.084C325.729 323.837 325.087 323.765 324.456 323.791C322.438 323.883 320.81 324.885 319.912 326.636C319.162 328.089 318.376 329.742 316.79 330.43C315.706 330.902 314.505 330.867 313.38 330.579C307.475 329.064 305.658 323.498 306.443 318.004Z" fill="#29C3BE"/>
<path d="M314.654 288.932C309.668 290.781 308.626 298.087 313.945 300.244C316.199 301.158 318.987 300.531 320.636 298.739C322.284 296.947 322.674 294.118 321.575 291.946C320.369 289.574 317.247 287.972 314.654 288.932Z" fill="#29C3BE"/>
<path d="M330.51 288.932C325.524 290.781 324.482 298.087 329.801 300.244C332.055 301.158 334.843 300.531 336.492 298.739C338.14 296.947 338.53 294.118 337.431 291.946C336.219 289.574 333.098 287.972 330.51 288.932Z" fill="#29C3BE"/>
<path d="M343.644 299.207C339.47 300.131 338.232 305.702 341.323 308.577C343.619 310.713 347.731 310.395 349.667 307.93C353.159 303.484 348.697 298.093 343.644 299.207Z" fill="#29C3BE"/>
<path d="M302.033 299.207C297.858 300.131 296.621 305.702 299.712 308.577C302.007 310.713 306.12 310.395 308.056 307.93C311.547 303.484 307.085 298.093 302.033 299.207Z" fill="#29C3BE"/>
<path d="M20.1537 267.619C19.825 265.118 20.0202 262.494 20.7082 260.143C24.4668 247.296 38.8696 243.553 49.0928 251.352C51.7217 253.355 54.0631 256.107 55.3622 259.439C56.6613 262.772 56.7948 266.72 55.3057 269.596C53.8167 272.471 50.587 273.97 47.6961 272.697C46.4997 272.168 45.2417 271.295 44.3432 270.361C43.3779 269.354 42.3971 268.302 40.9286 268.122C40.3022 268.045 39.6603 268.148 39.0596 268.343C37.1392 268.974 35.8453 270.376 35.4499 272.307C35.1213 273.909 34.8081 275.711 33.4628 276.799C32.5437 277.544 31.3832 277.837 30.2176 277.862C24.1228 277.991 20.8776 273.118 20.1537 267.619Z" fill="#29C3BE"/>
<path d="M20.2409 237.407C15.9381 240.529 16.8982 247.845 22.6029 248.492C25.0213 248.764 27.5373 247.414 28.6413 245.247C29.7452 243.08 29.3601 240.246 27.717 238.454C25.9148 236.488 22.4797 235.784 20.2409 237.407Z" fill="#29C3BE"/>
<path d="M35.5064 233.145C31.2035 236.267 32.1637 243.584 37.8683 244.231C40.2867 244.503 42.8027 243.153 43.9067 240.986C45.0107 238.819 44.6256 235.985 42.9825 234.193C41.1853 232.221 37.7451 231.518 35.5064 233.145Z" fill="#29C3BE"/>
<path d="M50.9258 239.502C47.157 241.514 47.465 247.214 51.2082 249.15C53.9912 250.587 57.8679 249.175 59.0695 246.279C61.2414 241.063 55.4906 237.068 50.9258 239.502Z" fill="#29C3BE"/>
<path d="M10.8496 250.7C7.08073 252.713 7.38882 258.412 11.132 260.348C13.915 261.786 17.7917 260.374 18.9932 257.478C21.1652 252.261 15.4143 248.266 10.8496 250.7Z" fill="#29C3BE"/>
<path d="M131.428 395.537C132.444 393.231 133.974 391.085 135.777 389.432C145.651 380.395 159.904 384.656 164.603 396.625C165.809 399.701 166.39 403.269 165.773 406.792C165.157 410.314 163.222 413.759 160.459 415.449C157.697 417.138 154.154 416.742 152.346 414.155C151.597 413.081 150.97 411.685 150.688 410.417C150.385 409.056 150.092 407.649 148.932 406.735C148.434 406.345 147.833 406.098 147.217 405.955C145.25 405.498 143.412 406.027 142.072 407.469C140.957 408.671 139.756 410.047 138.041 410.283C136.87 410.442 135.725 410.093 134.719 409.508C129.44 406.463 129.189 400.615 131.428 395.537Z" fill="#29C3BE"/>
<path d="M147.155 369.746C141.856 370.187 138.888 376.939 143.427 380.446C145.353 381.93 148.208 382.079 150.272 380.8C152.341 379.522 153.476 376.898 153.003 374.51C152.485 371.897 149.912 369.514 147.155 369.746Z" fill="#29C3BE"/>
<path d="M162.426 374.012C157.127 374.454 154.159 381.206 158.698 384.713C160.623 386.197 163.478 386.346 165.542 385.067C167.612 383.789 168.746 381.165 168.274 378.777C167.755 376.164 165.178 373.781 162.426 374.012Z" fill="#29C3BE"/>
<path d="M172.31 387.439C168.043 387.203 165.352 392.24 167.55 395.839C169.188 398.514 173.234 399.31 175.76 397.462C180.325 394.119 177.475 387.721 172.31 387.439Z" fill="#29C3BE"/>
<path d="M132.234 376.246C127.967 376.01 125.276 381.047 127.474 384.646C129.112 387.321 133.158 388.117 135.684 386.268C140.249 382.926 137.399 376.528 132.234 376.246Z" fill="#29C3BE"/>
<path d="M671.006 281.035C671.366 278.54 672.259 276.06 673.553 273.986C680.629 262.623 695.509 262.895 703.252 273.159C705.244 275.798 706.759 279.074 707.113 282.637C707.468 286.196 706.533 290.031 704.325 292.403C702.117 294.77 698.6 295.345 696.166 293.343C695.155 292.511 694.179 291.335 693.563 290.19C692.906 288.958 692.243 287.685 690.878 287.115C690.292 286.868 689.65 286.796 689.019 286.822C687.001 286.914 685.373 287.916 684.475 289.667C683.725 291.12 682.939 292.773 681.353 293.461C680.269 293.933 679.068 293.898 677.943 293.61C672.038 292.095 670.221 286.529 671.006 281.035Z" fill="#29C3BE"/>
<path d="M679.217 251.963C674.231 253.812 673.188 261.118 678.508 263.275C680.762 264.189 683.55 263.562 685.198 261.77C686.847 259.979 687.237 257.149 686.138 254.977C684.931 252.605 681.81 251.003 679.217 251.963Z" fill="#29C3BE"/>
<path d="M695.072 251.963C690.087 253.812 689.044 261.118 694.364 263.275C696.618 264.189 699.406 263.562 701.054 261.77C702.703 259.979 703.093 257.149 701.994 254.977C700.782 252.605 697.66 251.003 695.072 251.963Z" fill="#29C3BE"/>
<path d="M708.207 262.238C704.033 263.162 702.795 268.733 705.886 271.608C708.181 273.744 712.294 273.426 714.23 270.961C717.722 266.515 713.26 261.124 708.207 262.238Z" fill="#29C3BE"/>
<path d="M666.596 262.238C662.421 263.162 661.184 268.733 664.275 271.608C666.57 273.744 670.683 273.426 672.619 270.961C676.11 266.515 671.648 261.124 666.596 262.238Z" fill="#29C3BE"/>
<path d="M446.502 255.594C447.786 253.427 449.557 251.476 451.545 250.048C462.42 242.249 476.068 248.179 479.313 260.615C480.145 263.814 480.299 267.424 479.267 270.848C478.235 274.273 475.909 277.462 472.961 278.812C470.019 280.157 466.548 279.346 465.059 276.563C464.443 275.408 463.986 273.95 463.858 272.656C463.719 271.269 463.591 269.837 462.548 268.789C462.101 268.343 461.532 268.024 460.941 267.809C459.041 267.121 457.157 267.429 455.652 268.702C454.405 269.76 453.049 270.987 451.319 271.013C450.138 271.033 449.044 270.545 448.109 269.852C443.232 266.212 443.678 260.369 446.502 255.594Z" fill="#29C3BE"/>
<path d="M465.187 231.856C459.873 231.661 456.125 238.018 460.217 242.038C461.952 243.743 464.766 244.231 466.974 243.204C469.177 242.177 470.62 239.707 470.435 237.284C470.224 234.629 467.95 231.959 465.187 231.856Z" fill="#29C3BE"/>
<path d="M479.842 237.905C474.527 237.71 470.779 244.066 474.871 248.087C476.607 249.791 479.421 250.279 481.629 249.252C483.831 248.225 485.274 245.756 485.089 243.332C484.879 240.677 482.604 238.007 479.842 237.905Z" fill="#29C3BE"/>
<path d="M488.063 252.415C483.852 251.676 480.581 256.353 482.337 260.189C483.642 263.039 487.564 264.312 490.296 262.777C495.225 259.999 493.156 253.314 488.063 252.415Z" fill="#29C3BE"/>
<path d="M449.598 236.534C445.388 235.795 442.117 240.472 443.873 244.308C445.178 247.157 449.1 248.431 451.832 246.896C456.761 244.123 454.697 237.433 449.598 236.534Z" fill="#29C3BE"/>
<path d="M568.092 406.955C567.465 404.517 567.347 401.883 567.748 399.469C569.935 386.263 583.788 380.82 594.869 387.336C597.719 389.01 600.374 391.459 602.063 394.612C603.752 397.765 604.358 401.667 603.223 404.701C602.094 407.736 599.064 409.61 596.045 408.691C594.792 408.311 593.437 407.597 592.435 406.771C591.357 405.887 590.258 404.963 588.779 404.958C588.148 404.958 587.521 405.133 586.946 405.4C585.118 406.257 583.999 407.803 583.835 409.769C583.701 411.402 583.604 413.225 582.402 414.467C581.581 415.315 580.461 415.746 579.311 415.91C573.278 416.783 569.468 412.331 568.092 406.955Z" fill="#29C3BE"/>
<path d="M564.554 376.959C560.657 380.574 562.49 387.722 568.225 387.68C570.659 387.66 572.995 386.017 573.832 383.732C574.669 381.447 573.945 378.685 572.102 377.098C570.074 375.362 566.577 375.075 564.554 376.959Z" fill="#29C3BE"/>
<path d="M579.198 370.89C575.301 374.505 577.134 381.652 582.869 381.611C585.303 381.591 587.639 379.948 588.476 377.663C589.313 375.378 588.589 372.616 586.746 371.029C584.723 369.294 581.226 369.011 579.198 370.89Z" fill="#29C3BE"/>
<path d="M595.265 375.357C591.763 377.807 592.754 383.429 596.702 384.903C599.639 385.996 603.316 384.127 604.163 381.108C605.693 375.665 599.506 372.39 595.265 375.357Z" fill="#29C3BE"/>
<path d="M556.821 391.28C553.319 393.729 554.31 399.352 558.259 400.825C561.196 401.919 564.872 400.05 565.719 397.031C567.25 391.593 561.062 388.317 556.821 391.28Z" fill="#29C3BE"/>
<path d="M298.233 154.037C297.75 151.562 297.781 148.928 298.32 146.541C301.273 133.483 315.414 128.852 326.099 135.999C328.846 137.837 331.357 140.436 332.861 143.681C334.366 146.926 334.741 150.859 333.436 153.821C332.132 156.784 329 158.478 326.037 157.39C324.81 156.938 323.501 156.147 322.541 155.264C321.514 154.319 320.471 153.334 318.998 153.241C318.366 153.2 317.735 153.344 317.144 153.58C315.27 154.33 314.063 155.808 313.786 157.76C313.555 159.382 313.355 161.195 312.081 162.365C311.208 163.166 310.068 163.531 308.908 163.628C302.839 164.147 299.296 159.485 298.233 154.037Z" fill="#29C3BE"/>
<path d="M296.436 123.887C292.333 127.27 293.75 134.51 299.481 134.803C301.909 134.926 304.338 133.416 305.303 131.188C306.269 128.954 305.709 126.151 303.958 124.467C302.043 122.613 298.572 122.125 296.436 123.887Z" fill="#29C3BE"/>
<path d="M311.409 118.675C307.306 122.059 308.723 129.299 314.453 129.591C316.882 129.715 319.311 128.205 320.276 125.977C321.242 123.743 320.682 120.94 318.931 119.255C317.016 117.402 313.545 116.914 311.409 118.675Z" fill="#29C3BE"/>
<path d="M327.193 124.061C323.557 126.305 324.215 131.974 328.076 133.673C330.946 134.936 334.725 133.283 335.742 130.32C337.585 124.975 331.598 121.35 327.193 124.061Z" fill="#29C3BE"/>
<path d="M287.892 137.735C284.256 139.979 284.914 145.647 288.775 147.347C291.645 148.61 295.424 146.957 296.441 143.994C298.284 138.649 292.297 135.019 287.892 137.735Z" fill="#29C3BE"/>
<path d="M15.7738 40.3165C17.2885 38.3038 19.2705 36.5632 21.4014 35.3668C33.0777 28.8254 45.9811 36.2397 47.8193 48.9632C48.2917 52.2339 48.0401 55.8384 46.6332 59.1296C45.2263 62.4209 42.5563 65.3271 39.4806 66.3386C36.4049 67.3501 33.0468 66.1589 31.8813 63.227C31.3986 62.0101 31.1059 60.5108 31.1213 59.2066C31.1367 57.81 31.1727 56.3775 30.2536 55.2171C29.8582 54.7242 29.3293 54.3442 28.7645 54.0669C26.952 53.1735 25.047 53.2659 23.409 54.3647C22.0483 55.2787 20.5696 56.3415 18.8443 56.1824C17.6685 56.0694 16.6312 55.4635 15.784 54.6677C11.3425 50.5035 12.4362 44.7477 15.7738 40.3165Z" fill="#29C3BE"/>
<path d="M36.9852 18.8078C31.7273 18.0222 27.2909 23.9218 30.9108 28.3735C32.4461 30.263 35.188 31.0589 37.4935 30.2836C39.799 29.5082 41.5088 27.2182 41.591 24.7844C41.6834 22.1247 39.722 19.2134 36.9852 18.8078Z" fill="#29C3BE"/>
<path d="M50.8745 26.4531C45.6166 25.6675 41.1802 31.5671 44.8002 36.0188C46.3355 37.9083 49.0774 38.7042 51.3828 37.9288C53.6883 37.1535 55.3982 34.8635 55.4803 32.4297C55.5728 29.77 53.6113 26.8587 50.8745 26.4531Z" fill="#29C3BE"/>
<path d="M57.4264 41.7851C53.3289 40.5836 49.5549 44.8658 50.8745 48.8759C51.8552 51.854 55.6087 53.5587 58.4995 52.3315C63.701 50.1236 62.3916 43.2433 57.4264 41.7851Z" fill="#29C3BE"/>
<path d="M20.9752 21.7241C16.8777 20.5226 13.1037 24.8048 14.4233 28.8149C15.4041 31.7929 19.1575 33.4976 22.0484 32.2705C27.2498 30.0575 25.9404 23.1771 20.9752 21.7241Z" fill="#29C3BE"/>
<path d="M131.392 182.205C132.434 179.91 133.99 177.784 135.818 176.156C145.805 167.243 160.007 171.689 164.551 183.715C165.722 186.806 166.256 190.379 165.594 193.896C164.931 197.414 162.954 200.833 160.171 202.487C157.388 204.14 153.851 203.703 152.074 201.095C151.34 200.012 150.729 198.61 150.462 197.337C150.174 195.971 149.897 194.564 148.752 193.629C148.259 193.229 147.663 192.977 147.047 192.828C145.086 192.346 143.242 192.854 141.887 194.282C140.757 195.468 139.54 196.828 137.825 197.044C136.649 197.188 135.51 196.823 134.513 196.228C129.271 193.111 129.091 187.252 131.392 182.205Z" fill="#29C3BE"/>
<path d="M147.448 156.614C142.144 156.989 139.088 163.705 143.586 167.269C145.491 168.778 148.346 168.963 150.426 167.71C152.511 166.457 153.681 163.849 153.235 161.456C152.747 158.838 150.205 156.419 147.448 156.614Z" fill="#29C3BE"/>
<path d="M162.657 161.071C157.353 161.446 154.297 168.162 158.795 171.725C160.7 173.235 163.555 173.42 165.635 172.167C167.719 170.914 168.89 168.306 168.443 165.913C167.961 163.294 165.419 160.876 162.657 161.071Z" fill="#29C3BE"/>
<path d="M172.377 174.627C168.115 174.339 165.358 179.34 167.514 182.965C169.116 185.661 173.152 186.508 175.704 184.69C180.305 181.404 177.537 174.976 172.377 174.627Z" fill="#29C3BE"/>
<path d="M132.444 162.925C128.182 162.637 125.425 167.638 127.582 171.263C129.184 173.959 133.22 174.806 135.771 172.989C140.372 169.708 137.605 163.274 132.444 162.925Z" fill="#29C3BE"/>
<path d="M225.356 25.6008C226.399 23.3056 227.954 21.1799 229.782 19.5522C239.769 10.6386 253.972 15.0852 258.516 27.1103C259.687 30.2013 260.221 33.775 259.558 37.2922C258.896 40.8094 256.919 44.229 254.136 45.8772C251.353 47.5305 247.815 47.0941 246.039 44.4857C245.305 43.4023 244.694 42.0006 244.427 40.7272C244.139 39.3614 243.862 37.9545 242.717 37.0201C242.224 36.6196 241.628 36.368 241.012 36.2191C239.051 35.7364 237.207 36.2447 235.852 37.6721C234.722 38.8582 233.505 40.2189 231.79 40.4345C230.614 40.5783 229.474 40.2138 228.478 39.6181C223.236 36.5066 223.056 30.6481 225.356 25.6008Z" fill="#29C3BE"/>
<path d="M241.413 0.0100772C236.108 0.384901 233.053 7.10092 237.551 10.6643C239.456 12.1739 242.311 12.3587 244.391 11.1059C246.475 9.85305 247.646 7.24469 247.199 4.85198C246.712 2.23335 244.17 -0.185037 241.413 0.0100772Z" fill="#29C3BE"/>
<path d="M256.621 4.46686C251.317 4.84169 248.262 11.5577 252.76 15.1211C254.665 16.6307 257.52 16.8155 259.6 15.5627C261.679 14.3098 262.855 11.7015 262.408 9.30877C261.926 6.69013 259.384 4.27175 256.621 4.46686Z" fill="#29C3BE"/>
<path d="M266.341 18.0221C262.08 17.7346 259.322 22.7357 261.479 26.3607C263.081 29.0563 267.117 29.9035 269.669 28.0859C274.269 24.7998 271.502 18.3713 266.341 18.0221Z" fill="#29C3BE"/>
<path d="M226.409 6.3207C222.147 6.03316 219.39 11.0342 221.546 14.6592C223.148 17.3549 227.184 18.2021 229.736 16.3845C234.337 13.1035 231.569 6.66985 226.409 6.3207Z" fill="#29C3BE"/>
<path d="M678.436 56.6959C677.733 54.2775 677.527 51.6486 677.851 49.2251C679.617 35.9573 693.286 30.0731 704.572 36.2295C707.473 37.8109 710.205 40.1728 711.997 43.2741C713.783 46.3702 714.513 50.252 713.481 53.3225C712.448 56.3929 709.481 58.3595 706.431 57.5379C705.167 57.1991 703.791 56.5264 702.759 55.7357C701.65 54.8885 700.526 54.0002 699.047 54.0413C698.415 54.0618 697.794 54.2569 697.229 54.5445C695.427 55.4584 694.359 57.0399 694.261 59.0064C694.179 60.6392 694.143 62.4671 692.978 63.7508C692.182 64.6288 691.078 65.0909 689.933 65.2911C683.93 66.3489 679.982 62.0256 678.436 56.6959Z" fill="#29C3BE"/>
<path d="M673.938 26.8229C670.159 30.5609 672.218 37.6466 677.954 37.4207C680.382 37.3231 682.667 35.603 683.427 33.2976C684.187 30.987 683.381 28.2452 681.486 26.7253C679.407 25.0515 675.905 24.8769 673.938 26.8229Z" fill="#29C3BE"/>
<path d="M688.382 20.2916C684.603 24.0296 686.662 31.1153 692.397 30.8894C694.826 30.7918 697.111 29.0718 697.871 26.7663C698.631 24.4558 697.825 21.7139 695.93 20.1941C693.851 18.5202 690.349 18.3456 688.382 20.2916Z" fill="#29C3BE"/>
<path d="M704.582 24.2403C701.162 26.8025 702.328 32.3889 706.328 33.7342C709.301 34.7354 712.916 32.7483 713.665 29.7035C715.016 24.2147 708.726 21.1391 704.582 24.2403Z" fill="#29C3BE"/>
<path d="M666.673 41.3843C663.253 43.9464 664.418 49.5328 668.418 50.8781C671.391 51.8793 675.006 49.8923 675.756 46.8474C677.101 41.3637 670.811 38.2881 666.673 41.3843Z" fill="#29C3BE"/>
<path d="M815.358 181.06C816.97 179.124 819.034 177.486 821.227 176.398C833.216 170.447 845.735 178.488 846.936 191.288C847.244 194.579 846.813 198.169 845.247 201.383C843.676 204.597 840.867 207.37 837.745 208.227C834.623 209.085 831.332 207.724 830.305 204.741C829.879 203.503 829.668 201.989 829.745 200.69C829.832 199.298 829.935 197.866 829.078 196.664C828.708 196.151 828.2 195.745 827.645 195.442C825.879 194.461 823.969 194.461 822.285 195.478C820.883 196.325 819.347 197.311 817.632 197.065C816.462 196.895 815.46 196.238 814.654 195.401C810.423 191.016 811.805 185.322 815.358 181.06Z" fill="#29C3BE"/>
<path d="M837.611 160.63C832.4 159.587 827.676 165.256 831.07 169.882C832.508 171.844 835.208 172.773 837.55 172.116C839.891 171.459 841.709 169.251 841.914 166.827C842.135 164.178 840.323 161.174 837.611 160.63Z" fill="#29C3BE"/>
<path d="M851.1 168.958C845.889 167.916 841.165 173.584 844.559 178.21C845.997 180.172 848.697 181.101 851.039 180.444C853.38 179.787 855.198 177.579 855.403 175.155C855.629 172.501 853.811 169.497 851.1 168.958Z" fill="#29C3BE"/>
<path d="M856.887 184.598C852.851 183.191 848.872 187.283 849.991 191.35C850.823 194.374 854.489 196.258 857.431 195.18C862.736 193.234 861.77 186.297 856.887 184.598Z" fill="#29C3BE"/>
<path d="M821.473 162.745C817.437 161.338 813.458 165.431 814.577 169.497C815.409 172.521 819.075 174.406 822.017 173.328C827.327 171.382 826.361 164.45 821.473 162.745Z" fill="#29C3BE"/>
<path d="M448.161 49.9795C448.52 47.4841 449.414 45.0041 450.708 42.9298C457.783 31.5669 472.663 31.8391 480.407 42.1031C482.399 44.7423 483.914 48.0181 484.268 51.5815C484.622 55.1398 483.688 58.9753 481.48 61.3475C479.272 63.7145 475.755 64.2896 473.321 62.2871C472.309 61.4553 471.334 60.2795 470.717 59.1345C470.06 57.9022 469.398 56.6288 468.032 56.0589C467.447 55.8124 466.805 55.7405 466.173 55.7662C464.155 55.8586 462.528 56.8598 461.629 58.6107C460.879 60.0638 460.094 61.7171 458.507 62.4052C457.424 62.8776 456.222 62.8416 455.098 62.5541C449.193 61.0394 447.375 55.4735 448.161 49.9795Z" fill="#29C3BE"/>
<path d="M456.371 20.9075C451.385 22.756 450.343 30.0624 455.663 32.219C457.917 33.1329 460.705 32.5065 462.353 30.7145C464.001 28.9226 464.392 26.0934 463.293 23.9215C462.086 21.5493 458.964 19.9473 456.371 20.9075Z" fill="#29C3BE"/>
<path d="M472.227 20.9075C467.241 22.756 466.199 30.0624 471.519 32.219C473.773 33.1329 476.561 32.5065 478.209 30.7145C479.857 28.9226 480.247 26.0934 479.149 23.9215C477.937 21.5493 474.815 19.9473 472.227 20.9075Z" fill="#29C3BE"/>
<path d="M485.362 31.1819C481.187 32.1061 479.95 37.6771 483.041 40.5525C485.336 42.6884 489.449 42.3701 491.385 39.9055C494.876 35.459 490.414 30.0677 485.362 31.1819Z" fill="#29C3BE"/>
<path d="M443.75 31.1819C439.576 32.1061 438.338 37.6771 441.429 40.5525C443.724 42.6884 447.837 42.3701 449.773 39.9055C453.265 35.459 448.803 30.0677 443.75 31.1819Z" fill="#29C3BE"/>
<path d="M563.691 187.586C564.051 185.091 564.944 182.611 566.238 180.536C573.314 169.174 588.194 169.446 595.937 179.71C597.929 182.349 599.444 185.625 599.798 189.188C600.153 192.746 599.218 196.582 597.01 198.954C594.802 201.321 591.285 201.896 588.851 199.894C587.84 199.062 586.864 197.886 586.248 196.741C585.591 195.509 584.928 194.235 583.563 193.666C582.977 193.419 582.335 193.347 581.704 193.373C579.686 193.465 578.058 194.467 577.16 196.217C576.41 197.671 575.624 199.324 574.038 200.012C572.954 200.484 571.753 200.448 570.628 200.161C564.723 198.646 562.906 193.08 563.691 187.586Z" fill="#29C3BE"/>
<path d="M571.902 158.514C566.916 160.363 565.874 167.669 571.193 169.826C573.447 170.74 576.235 170.113 577.884 168.321C579.532 166.529 579.922 163.7 578.823 161.528C577.617 159.156 574.495 157.554 571.902 158.514Z" fill="#29C3BE"/>
<path d="M587.758 158.514C582.772 160.363 581.73 167.669 587.049 169.826C589.303 170.74 592.091 170.113 593.739 168.321C595.388 166.529 595.778 163.7 594.679 161.528C593.467 159.156 590.345 157.554 587.758 158.514Z" fill="#29C3BE"/>
<path d="M600.892 168.789C596.718 169.713 595.48 175.284 598.571 178.159C600.866 180.295 604.979 179.977 606.915 177.512C610.407 173.066 605.945 167.674 600.892 168.789Z" fill="#29C3BE"/>
<path d="M559.281 168.789C555.106 169.713 553.869 175.284 556.96 178.159C559.255 180.295 563.368 179.977 565.304 177.512C568.795 173.066 564.333 167.674 559.281 168.789Z" fill="#29C3BE"/>
<path d="M261.941 496.924C261.967 494.403 262.532 491.83 263.538 489.602C269.063 477.412 283.851 475.728 292.872 484.888C295.193 487.24 297.129 490.295 297.946 493.776C298.762 497.257 298.341 501.185 296.462 503.825C294.582 506.464 291.173 507.491 288.493 505.827C287.383 505.134 286.259 504.097 285.499 503.039C284.683 501.904 283.861 500.728 282.434 500.343C281.823 500.179 281.176 500.189 280.549 500.297C278.562 500.651 277.083 501.858 276.416 503.712C275.861 505.252 275.302 506.993 273.818 507.881C272.801 508.487 271.615 508.615 270.454 508.476C264.411 507.758 261.879 502.474 261.941 496.924Z" fill="#29C3BE"/>
<path d="M266.264 467.031C261.566 469.516 261.489 476.894 267.045 478.337C269.397 478.948 272.082 477.962 273.479 475.97C274.875 473.978 274.891 471.123 273.52 469.115C272.015 466.912 268.709 465.737 266.264 467.031Z" fill="#29C3BE"/>
<path d="M281.982 464.951C277.283 467.436 277.206 474.814 282.762 476.257C285.114 476.868 287.799 475.882 289.196 473.89C290.593 471.898 290.608 469.043 289.237 467.035C287.733 464.838 284.426 463.657 281.982 464.951Z" fill="#29C3BE"/>
<path d="M296.354 473.413C292.338 474.876 291.84 480.565 295.281 483.004C297.838 484.822 301.868 483.964 303.47 481.269C306.346 476.406 301.211 471.646 296.354 473.413Z" fill="#29C3BE"/>
<path d="M255.102 478.871C251.086 480.334 250.588 486.023 254.028 488.462C256.586 490.28 260.616 489.422 262.213 486.727C265.094 481.864 259.964 477.099 255.102 478.871Z" fill="#29C3BE"/>
<path d="M294.29 629.396C294.315 626.875 294.88 624.302 295.886 622.074C301.411 609.884 316.199 608.2 325.221 617.36C327.542 619.712 329.478 622.767 330.294 626.248C331.11 629.729 330.689 633.657 328.81 636.296C326.931 638.936 323.521 639.963 320.841 638.299C319.732 637.606 318.607 636.569 317.848 635.511C317.031 634.376 316.21 633.2 314.782 632.815C314.171 632.651 313.524 632.661 312.898 632.769C310.911 633.123 309.432 634.33 308.764 636.184C308.21 637.724 307.65 639.465 306.166 640.353C305.149 640.959 303.963 641.087 302.803 640.948C296.759 640.23 294.228 634.946 294.29 629.396Z" fill="#29C3BE"/>
<path d="M298.613 599.502C293.915 601.987 293.838 609.366 299.393 610.809C301.745 611.42 304.431 610.434 305.827 608.442C307.224 606.449 307.239 603.595 305.868 601.587C304.364 599.384 301.057 598.208 298.613 599.502Z" fill="#29C3BE"/>
<path d="M314.33 597.423C309.632 599.908 309.555 607.286 315.111 608.729C317.462 609.34 320.148 608.354 321.544 606.362C322.941 604.37 322.957 601.515 321.586 599.507C320.081 597.31 316.774 596.129 314.33 597.423Z" fill="#29C3BE"/>
<path d="M328.702 605.885C324.687 607.348 324.189 613.037 327.629 615.476C330.186 617.293 334.217 616.436 335.819 613.74C338.694 608.878 333.56 604.118 328.702 605.885Z" fill="#29C3BE"/>
<path d="M287.45 611.342C283.435 612.806 282.937 618.495 286.377 620.934C288.934 622.751 292.965 621.894 294.567 619.198C297.442 614.336 292.313 609.571 287.45 611.342Z" fill="#29C3BE"/>
<path d="M20.7031 479.8C20.2718 477.32 20.3539 474.686 20.9393 472.309C24.1433 459.313 38.3715 454.959 48.9182 462.312C51.6293 464.201 54.0888 466.851 55.5265 470.127C56.9642 473.403 57.2672 477.341 55.9014 480.278C54.5355 483.215 51.3726 484.848 48.4355 483.703C47.2186 483.225 45.9195 482.409 44.985 481.51C43.9786 480.545 42.9517 479.538 41.478 479.42C40.8464 479.369 40.2098 479.497 39.6193 479.723C37.7297 480.437 36.4922 481.89 36.179 483.836C35.9171 485.453 35.681 487.261 34.387 488.411C33.4987 489.197 32.3537 489.535 31.1932 489.612C25.1138 489.998 21.6581 485.269 20.7031 479.8Z" fill="#29C3BE"/>
<path d="M19.4964 449.619C15.3322 452.926 16.6056 460.191 22.3308 460.591C24.7543 460.761 27.2139 459.303 28.2254 457.09C29.2369 454.877 28.7286 452.063 27.0136 450.343C25.124 448.453 21.6633 447.899 19.4964 449.619Z" fill="#29C3BE"/>
<path d="M34.5667 444.7C30.4025 448.007 31.6759 455.272 37.4011 455.673C39.8246 455.842 42.2842 454.384 43.2957 452.171C44.3072 449.958 43.7989 447.144 42.0839 445.424C40.1943 443.54 36.7336 442.985 34.5667 444.7Z" fill="#29C3BE"/>
<path d="M50.2429 450.394C46.5614 452.566 47.1108 458.25 50.9412 460.022C53.7859 461.341 57.5958 459.76 58.6741 456.818C60.615 451.514 54.6947 447.771 50.2429 450.394Z" fill="#29C3BE"/>
<path d="M10.6802 463.298C6.99858 465.469 7.54799 471.153 11.3785 472.925C14.2231 474.245 18.033 472.663 19.1113 469.721C21.0522 464.412 15.1371 460.669 10.6802 463.298Z" fill="#29C3BE"/>
<path d="M131.243 604.971C132.501 602.789 134.252 600.817 136.223 599.369C147.011 591.446 160.726 597.218 164.11 609.623C164.978 612.811 165.173 616.421 164.177 619.856C163.186 623.291 160.89 626.51 157.964 627.892C155.037 629.273 151.555 628.503 150.036 625.735C149.404 624.59 148.932 623.132 148.788 621.838C148.634 620.452 148.49 619.024 147.437 617.987C146.986 617.545 146.416 617.237 145.815 617.027C143.905 616.365 142.026 616.688 140.536 617.982C139.299 619.055 137.959 620.293 136.228 620.344C135.047 620.38 133.949 619.902 133.004 619.219C128.09 615.625 128.47 609.777 131.243 604.971Z" fill="#29C3BE"/>
<path d="M149.651 581.023C144.336 580.89 140.655 587.287 144.793 591.261C146.544 592.946 149.368 593.397 151.561 592.35C153.753 591.297 155.165 588.812 154.955 586.394C154.718 583.734 152.418 581.09 149.651 581.023Z" fill="#29C3BE"/>
<path d="M164.372 586.902C159.057 586.769 155.376 593.167 159.514 597.141C161.265 598.825 164.089 599.277 166.282 598.229C168.474 597.177 169.886 594.692 169.676 592.273C169.44 589.619 167.139 586.974 164.372 586.902Z" fill="#29C3BE"/>
<path d="M172.757 601.32C168.541 600.627 165.322 605.346 167.124 609.161C168.464 611.995 172.397 613.227 175.113 611.656C180.007 608.822 177.866 602.157 172.757 601.32Z" fill="#29C3BE"/>
<path d="M134.118 585.875C129.903 585.182 126.683 589.901 128.485 593.716C129.825 596.55 133.759 597.783 136.475 596.211C141.368 593.382 139.222 586.712 134.118 585.875Z" fill="#29C3BE"/>
<path d="M816.734 560.608C816.179 558.148 816.128 555.514 816.595 553.116C819.152 539.977 833.15 534.925 844.045 541.748C846.849 543.504 849.432 546.026 851.034 549.224C852.631 552.423 853.129 556.341 851.912 559.34C850.695 562.338 847.614 564.13 844.62 563.129C843.378 562.713 842.048 561.963 841.062 561.111C840.009 560.197 838.936 559.242 837.457 559.196C836.826 559.175 836.194 559.334 835.614 559.586C833.761 560.392 832.6 561.907 832.384 563.863C832.205 565.491 832.056 567.308 830.818 568.52C829.971 569.347 828.841 569.742 827.686 569.876C821.637 570.574 817.956 566.02 816.734 560.608Z" fill="#29C3BE"/>
<path d="M814.033 530.519C810.033 534.026 811.666 541.22 817.407 541.338C819.835 541.389 822.223 539.808 823.121 537.549C824.02 535.289 823.378 532.506 821.576 530.869C819.599 529.082 816.113 528.697 814.033 530.519Z" fill="#29C3BE"/>
<path d="M828.841 524.866C824.842 528.373 826.474 535.566 832.215 535.685C834.644 535.736 837.031 534.154 837.93 531.895C838.829 529.636 838.187 526.853 836.384 525.215C834.408 523.428 830.921 523.043 828.841 524.866Z" fill="#29C3BE"/>
<path d="M844.78 529.78C841.211 532.131 842.043 537.779 845.95 539.361C848.857 540.536 852.584 538.77 853.514 535.777C855.193 530.38 849.103 526.935 844.78 529.78Z" fill="#29C3BE"/>
<path d="M805.905 544.618C802.336 546.97 803.168 552.618 807.076 554.2C809.982 555.375 813.71 553.609 814.639 550.616C816.323 545.224 810.228 541.774 805.905 544.618Z" fill="#29C3BE"/>
<path d="M644.208 505.155C643.654 502.695 643.602 500.061 644.07 497.663C646.627 484.524 660.624 479.471 671.52 486.295C674.323 488.051 676.906 490.572 678.508 493.771C680.105 496.97 680.603 500.888 679.386 503.886C678.169 506.885 675.088 508.677 672.095 507.676C670.852 507.26 669.522 506.51 668.537 505.658C667.484 504.744 666.411 503.789 664.932 503.743C664.3 503.722 663.669 503.881 663.089 504.133C661.235 504.939 660.075 506.454 659.859 508.41C659.679 510.038 659.53 511.855 658.293 513.067C657.446 513.894 656.316 514.289 655.161 514.423C649.112 515.121 645.43 510.566 644.208 505.155Z" fill="#29C3BE"/>
<path d="M641.507 475.066C637.508 478.573 639.14 485.766 644.881 485.884C647.31 485.936 649.697 484.354 650.596 482.095C651.495 479.836 650.853 477.053 649.05 475.415C647.074 473.628 643.587 473.243 641.507 475.066Z" fill="#29C3BE"/>
<path d="M656.316 469.413C652.316 472.92 653.949 480.113 659.689 480.231C662.118 480.283 664.506 478.701 665.404 476.442C666.303 474.183 665.661 471.4 663.859 469.762C661.882 467.975 658.396 467.59 656.316 469.413Z" fill="#29C3BE"/>
<path d="M672.254 474.326C668.685 476.678 669.517 482.326 673.425 483.908C676.331 485.083 680.059 483.317 680.988 480.324C682.667 474.927 676.577 471.482 672.254 474.326Z" fill="#29C3BE"/>
<path d="M633.379 489.165C629.811 491.517 630.643 497.165 634.55 498.746C637.456 499.922 641.184 498.156 642.113 495.163C643.798 489.771 637.703 486.321 633.379 489.165Z" fill="#29C3BE"/>
<path d="M678.95 607.732C680.665 605.889 682.811 604.359 685.06 603.389C697.352 598.085 709.419 606.788 709.937 619.634C710.071 622.936 709.45 626.494 707.709 629.621C705.968 632.748 703.016 635.367 699.853 636.055C696.69 636.743 693.476 635.213 692.613 632.173C692.254 630.915 692.125 629.39 692.274 628.096C692.433 626.71 692.618 625.288 691.822 624.04C691.483 623.506 690.996 623.08 690.456 622.741C688.747 621.668 686.842 621.565 685.101 622.489C683.653 623.259 682.072 624.163 680.372 623.824C679.211 623.593 678.246 622.885 677.486 622.007C673.491 617.406 675.17 611.794 678.95 607.732Z" fill="#29C3BE"/>
<path d="M702.261 588.524C697.111 587.205 692.089 592.612 695.232 597.412C696.562 599.446 699.211 600.524 701.583 599.99C703.956 599.456 705.891 597.351 706.225 594.943C706.595 592.303 704.941 589.212 702.261 588.524Z" fill="#29C3BE"/>
<path d="M715.288 597.561C710.138 596.242 705.116 601.648 708.258 606.449C709.588 608.482 712.238 609.56 714.61 609.026C716.982 608.492 718.918 606.387 719.252 603.979C719.622 601.34 717.968 598.244 715.288 597.561Z" fill="#29C3BE"/>
<path d="M720.227 613.488C716.274 611.866 712.079 615.742 712.977 619.865C713.645 622.931 717.208 625.01 720.202 624.086C725.608 622.422 725.013 615.45 720.227 613.488Z" fill="#29C3BE"/>
<path d="M686.035 589.773C682.082 588.15 677.887 592.027 678.785 596.15C679.453 599.215 683.016 601.295 686.01 600.37C691.417 598.712 690.826 591.734 686.035 589.773Z" fill="#29C3BE"/>
<path d="M446.918 470.732C447.781 468.365 449.167 466.121 450.862 464.36C460.125 454.697 474.63 458.029 480.099 469.669C481.505 472.663 482.312 476.18 481.926 479.738C481.536 483.297 479.837 486.855 477.187 488.719C474.538 490.582 470.979 490.418 469.008 487.959C468.191 486.937 467.477 485.581 467.113 484.334C466.723 482.994 466.338 481.612 465.121 480.77C464.597 480.411 463.986 480.205 463.359 480.103C461.367 479.774 459.57 480.421 458.327 481.951C457.295 483.22 456.186 484.673 454.492 485.017C453.331 485.253 452.166 484.976 451.123 484.462C445.645 481.766 445.013 475.944 446.918 470.732Z" fill="#29C3BE"/>
<path d="M460.941 443.976C455.683 444.761 453.157 451.693 457.917 454.897C459.935 456.258 462.795 456.217 464.771 454.805C466.748 453.393 467.719 450.702 467.087 448.351C466.399 445.778 463.673 443.565 460.941 443.976Z" fill="#29C3BE"/>
<path d="M476.453 447.242C471.195 448.027 468.669 454.959 473.429 458.163C475.447 459.523 478.307 459.482 480.283 458.07C482.26 456.658 483.231 453.968 482.599 451.616C481.911 449.044 479.19 446.831 476.453 447.242Z" fill="#29C3BE"/>
<path d="M487.189 460.001C482.917 460.042 480.555 465.243 482.984 468.694C484.792 471.256 488.879 471.79 491.282 469.777C495.621 466.142 492.365 459.945 487.189 460.001Z" fill="#29C3BE"/>
<path d="M446.471 451.426C442.199 451.467 439.837 456.668 442.266 460.119C444.074 462.681 448.161 463.215 450.564 461.202C454.903 457.572 451.647 451.375 446.471 451.426Z" fill="#29C3BE"/>
<path d="M533.854 622.254C532.303 620.267 531.137 617.905 530.537 615.533C527.245 602.557 537.751 592.016 550.521 593.541C553.802 593.931 557.217 595.112 560.03 597.325C562.844 599.538 564.96 602.871 565.139 606.1C565.319 609.335 563.296 612.267 560.164 612.637C558.865 612.791 557.34 612.678 556.087 612.329C554.742 611.949 553.366 611.543 552.01 612.133C551.43 612.385 550.927 612.801 550.511 613.273C549.176 614.793 548.775 616.657 549.412 618.521C549.941 620.071 550.588 621.776 549.982 623.399C549.571 624.508 548.719 625.35 547.728 625.961C542.542 629.175 537.268 626.623 533.854 622.254Z" fill="#29C3BE"/>
<path d="M518.578 596.191C516.457 601.069 521.001 606.881 526.244 604.54C528.462 603.549 529.946 601.105 529.797 598.676C529.648 596.247 527.877 594.003 525.551 593.295C522.999 592.514 519.682 593.654 518.578 596.191Z" fill="#29C3BE"/>
<path d="M529.561 584.761C527.44 589.639 531.985 595.451 537.227 593.11C539.445 592.119 540.929 589.675 540.78 587.246C540.631 584.817 538.86 582.574 536.534 581.865C533.982 581.085 530.665 582.224 529.561 584.761Z" fill="#29C3BE"/>
<path d="M546.074 582.404C543.851 586.05 547.009 590.809 551.219 590.573C554.351 590.399 556.97 587.21 556.534 584.109C555.748 578.507 548.765 577.988 546.074 582.404Z" fill="#29C3BE"/>
<path d="M517.243 612.41C515.015 616.056 518.177 620.816 522.388 620.579C525.52 620.405 528.139 617.216 527.702 614.115C526.917 608.513 519.933 607.995 517.243 612.41Z" fill="#29C3BE"/>
<path d="M228.304 253.432C225.5 255.876 224.525 259.748 225.649 263.712C226.748 267.973 230.573 269.447 233.51 268.933C239.025 268.862 241.526 263.794 244.319 259.383C246.414 255.758 249.649 253.186 253.356 251.342C258.146 248.96 263.014 246.793 267.913 244.616C270.059 243.661 272.262 242.814 274.377 241.818C278.346 239.949 282.603 238.198 287.07 238.285C291.738 238.372 296.118 242.044 300.518 239.076C306.916 234.758 303.604 225.284 296.456 225.1" stroke="#7DACBC" stroke-width="3.4984" stroke-miterlimit="10" stroke-linecap="round" stroke-linejoin="round"/>
<path d="M294.747 226.702C296.415 225.218 297.622 223.066 297.925 221.326C298.515 215.518 294.474 211.77 289.329 210.882C283.522 210.291 281.607 216.684 278.814 221.095C277.268 223.539 275.004 226.219 272.339 227.4C270.649 228.149 268.96 228.899 267.276 229.649C262.454 231.79 257.633 233.931 252.817 236.067C249.715 237.443 246.609 238.824 243.507 240.2C242.198 240.781 241.058 241.356 239.636 241.628C236.298 242.27 233.279 241.669 230.096 240.729C227.328 239.913 224.53 239.456 222.029 241.263C215.724 245.812 219.493 255.337 226.84 255.08" stroke="#7DACBC" stroke-width="3.4984" stroke-miterlimit="10" stroke-linecap="round" stroke-linejoin="round"/>
<path d="M520.031 131.989L517.762 133.252L514.804 133.725L511.728 133.252L509.531 131.532L507.98 129.463L507.333 127.199L507.492 124.565L508.622 121.905L511.256 119.492L514.917 117.612L517.797 115.707L519.867 113.494L521.864 110.522L523.553 107.148L532.919 84.8384L534.403 80.51L535.101 76.1302L534.773 71.5604L533.915 67.1652L533.535 63.9972L533.915 60.2695L536.067 56.7677L538.578 54.5701L542.495 53.8718L546.1 55.8589L548.672 58.19L549.961 60.5878L550.403 62.3387L552.59 60.7932L555.163 60.1103L558.043 60.4903L561.299 62.2977L563.471 65.7532L563.096 70.7389L559.496 74.1226L555.625 76.2226L552.164 78.7232L549.704 81.809L547.604 86.6971L537.027 111.538L535.255 116.565L535.317 121.037L536.385 126.079L537.309 130.541L537.037 134.289L534.49 137.514L531.389 138.875L527.846 139.219L524.976 138.618L522.259 136.472L520.611 133.755L520.031 131.989Z" fill="#EFEC7F"/>
<path d="M727.514 97.906C723.801 98.1319 720.669 100.602 719.139 104.427C717.409 108.478 719.539 111.975 722.179 113.361C726.589 116.668 731.668 114.177 736.571 112.391C740.443 110.799 744.576 110.732 748.643 111.538C753.89 112.575 759.066 113.828 764.278 115.097C766.563 115.651 768.822 116.324 771.102 116.827C775.389 117.772 779.826 118.978 783.312 121.772C786.958 124.688 788.185 130.269 793.484 130.603C801.191 131.091 804.344 121.561 798.798 117.048" stroke="#7DACBC" stroke-width="3.4984" stroke-miterlimit="10" stroke-linecap="round" stroke-linejoin="round"/>
<path d="M796.462 117.279C798.685 117.119 800.96 116.159 802.259 114.958C806.269 110.717 805.36 105.279 801.823 101.438C797.581 97.4284 792.164 101.326 787.261 103.112C784.544 104.103 781.114 104.848 778.28 104.155C776.483 103.718 774.691 103.282 772.894 102.845C767.769 101.598 762.645 100.35 757.521 99.1074C754.224 98.3064 750.922 97.5003 747.626 96.6993C746.235 96.3604 744.982 96.1191 743.688 95.467C740.653 93.942 738.63 91.6212 736.679 88.9307C734.984 86.5944 733.043 84.5252 729.963 84.4276C722.189 84.1812 719.36 94.0293 725.341 98.3115" stroke="#7DACBC" stroke-width="3.4984" stroke-miterlimit="10" stroke-linecap="round" stroke-linejoin="round"/>
<path d="M296.672 224.93L299.193 225.551L301.678 227.225L303.604 229.669L304.04 232.421L303.758 234.999L302.69 237.094L300.775 238.911L298.13 240.087L294.562 240.051L290.603 238.932L287.199 238.357L284.174 238.562L280.688 239.379L277.15 240.693L255.086 250.613L251.045 252.77L247.548 255.496L244.673 259.06L242.301 262.864L240.416 265.437L237.597 267.901L233.633 268.995L230.301 268.892L226.958 266.731L225.68 262.818L225.387 259.357L226.08 256.723L226.948 255.147L224.299 254.782L221.947 253.53L220.104 251.286L218.959 247.743L219.724 243.738L223.4 240.344L228.345 240.323L232.607 241.433L236.843 241.961L240.745 241.381L245.613 239.245L270.295 228.288L275.019 225.823L278.023 222.512L280.683 218.096L283.045 214.204L285.807 211.647L289.869 211.026L293.062 212.145L295.886 214.312L297.581 216.71L298.099 220.129L297.452 223.241L296.672 224.93Z" fill="#7DACBC"/>
<path d="M228.304 108.124C225.5 110.568 224.525 114.439 225.649 118.403C226.748 122.665 230.573 124.138 233.51 123.625C239.025 123.553 241.526 118.485 244.319 114.075C246.414 110.45 249.649 107.877 253.356 106.034C258.146 103.651 263.014 101.485 267.913 99.3075C270.059 98.3525 272.262 97.5053 274.377 96.5092C278.346 94.6402 282.603 92.8893 287.07 92.9766C291.738 93.0639 296.118 96.7351 300.518 93.7673C306.916 89.4492 303.604 79.9759 296.456 79.791" stroke="#7DACBC" stroke-width="3.4984" stroke-miterlimit="10" stroke-linecap="round" stroke-linejoin="round"/>
<path d="M294.747 81.3932C296.415 79.9093 297.622 77.7579 297.925 76.0173C298.515 70.2101 294.474 66.4618 289.329 65.5736C283.522 64.9831 281.607 71.3756 278.814 75.7862C277.268 78.2303 275.004 80.9105 272.339 82.0915C270.649 82.8411 268.96 83.5908 267.276 84.3404C262.454 86.4815 257.633 88.6227 252.817 90.7586C249.715 92.1347 246.609 93.5159 243.507 94.892C242.198 95.4722 241.058 96.0472 239.636 96.3194C236.298 96.9612 233.279 96.3605 230.096 95.4208C227.328 94.6044 224.53 94.1475 222.029 95.9548C215.724 100.504 219.493 110.029 226.84 109.772" stroke="#7DACBC" stroke-width="3.4984" stroke-miterlimit="10" stroke-linecap="round" stroke-linejoin="round"/>
<path d="M296.671 79.621L299.193 80.2423L301.678 81.9161L303.603 84.3602L304.04 87.1123L303.757 89.6899L302.689 91.7848L300.774 93.6024L298.13 94.7782L294.561 94.7423L290.602 93.623L287.198 93.0479L284.174 93.2533L280.687 94.0697L277.149 95.3841L255.086 105.304L251.045 107.461L247.548 110.187L244.672 113.75L242.3 117.555L240.416 120.128L237.597 122.592L233.633 123.686L230.3 123.583L226.958 121.422L225.679 117.509L225.387 114.048L226.08 111.414L226.948 109.838L224.298 109.473L221.946 108.221L220.103 105.977L218.958 102.434L219.723 98.4289L223.399 95.035L228.344 95.0144L232.606 96.1235L236.842 96.6524L240.744 96.0722L245.612 93.9362L270.295 82.979L275.018 80.5144L278.022 77.2026L280.682 72.7869L283.044 68.8949L285.806 66.3378L289.868 65.7166L293.062 66.8359L295.886 69.0027L297.58 71.4005L298.099 74.8202L297.452 77.9317L296.671 79.621Z" fill="#7DACBC"/>
<path d="M95.7568 75.5192C92.445 73.8299 88.4913 74.3691 85.2307 76.8901C81.6878 79.5036 81.7443 83.5959 83.3206 86.1324C85.4464 91.2207 91.0843 91.6469 96.2138 92.5968C100.358 93.1873 103.952 95.2308 107.048 97.983C111.048 101.541 114.873 105.243 118.719 108.981C120.408 110.619 122.016 112.344 123.725 113.931C126.94 116.919 130.149 120.211 131.741 124.385C133.399 128.749 131.628 134.182 136.028 137.155C142.421 141.483 149.974 134.87 147.479 128.169" stroke="#7DACBC" stroke-width="3.4984" stroke-miterlimit="10" stroke-linecap="round" stroke-linejoin="round"/>
<path d="M145.348 127.183C147.345 128.174 149.794 128.498 151.52 128.123C157.127 126.506 159.098 121.356 158 116.252C156.382 110.645 149.733 111.256 144.598 110.306C141.753 109.782 138.421 108.683 136.331 106.65C135.006 105.361 133.682 104.078 132.357 102.789C128.573 99.1177 124.788 95.4414 121.004 91.7701C118.57 89.4031 116.131 87.0412 113.697 84.6742C112.67 83.6781 111.71 82.8309 110.925 81.614C109.086 78.7591 108.517 75.7349 108.198 72.4282C107.921 69.5528 107.3 66.7904 104.696 65.1422C98.1239 60.9884 90.6889 68.0381 93.6721 74.7644" stroke="#7DACBC" stroke-width="3.4984" stroke-miterlimit="10" stroke-linecap="round" stroke-linejoin="round"/>
<path d="M147.71 128.307L148.074 130.885L147.448 133.811L145.897 136.512L143.509 137.94L141.014 138.643L138.667 138.433L136.27 137.334L134.195 135.321L132.891 131.999L132.454 127.907L131.715 124.533L130.401 121.802L128.342 118.875L125.805 116.082L108.362 99.3123L104.855 96.3702L101.02 94.1417L96.64 92.8068L92.2242 92.0212L89.1382 91.2356L85.7955 89.536L83.3052 86.2704L82.155 83.1384L82.915 79.2309L86.0677 76.5815L89.169 75.0206L91.8699 74.6817L93.6619 74.9025L93.0046 72.3044L93.2922 69.6601L94.6837 67.1082L97.5437 64.7258L101.549 63.9402L106.067 66.0864L107.931 70.6613L108.496 75.0309L109.579 79.1591L111.577 82.5633L115.376 86.2807L134.75 105.089L138.801 108.554L142.996 110.105L148.084 110.927L152.577 111.666L155.982 113.273L158.071 116.811L158.225 120.189L157.27 123.619L155.679 126.084L152.695 127.845L149.568 128.405L147.71 128.307Z" fill="#7DACBC"/>
<path d="M93.7029 289.631C90.3911 287.942 86.4374 288.481 83.1768 291.002C79.6339 293.615 79.6904 297.708 81.2667 300.244C83.3925 305.333 89.0304 305.759 94.1599 306.709C98.3036 307.299 101.898 309.343 104.994 312.095C108.994 315.653 112.819 319.355 116.665 323.093C118.355 324.731 119.962 326.456 121.672 328.043C124.886 331.031 128.095 334.322 129.687 338.497C131.345 342.861 129.574 348.294 133.974 351.266C140.367 355.595 147.92 348.982 145.425 342.281" stroke="#7DACBC" stroke-width="3.4984" stroke-miterlimit="10" stroke-linecap="round" stroke-linejoin="round"/>
<path d="M143.294 341.295C145.291 342.286 147.74 342.609 149.466 342.234C155.073 340.617 157.044 335.467 155.946 330.363C154.328 324.756 147.679 325.367 142.544 324.418C139.7 323.894 136.367 322.795 134.277 320.762C132.953 319.473 131.628 318.189 130.303 316.901C126.519 313.229 122.734 309.553 118.95 305.882C116.516 303.515 114.077 301.153 111.644 298.786C110.617 297.79 109.656 296.942 108.871 295.726C107.033 292.871 106.463 289.846 106.144 286.54C105.867 283.664 105.246 280.902 102.642 279.254C96.07 275.1 88.635 282.15 91.6183 288.876" stroke="#7DACBC" stroke-width="3.4984" stroke-miterlimit="10" stroke-linecap="round" stroke-linejoin="round"/>
<path d="M145.656 342.42L146.02 344.998L145.394 347.925L143.843 350.625L141.456 352.053L138.96 352.756L136.614 352.546L134.216 351.447L132.141 349.434L130.837 346.112L130.401 342.02L129.661 338.646L128.347 335.915L126.288 332.988L123.751 330.195L106.309 313.425L102.802 310.483L98.966 308.255L94.5861 306.92L90.1703 306.134L87.0843 305.349L83.7416 303.649L81.2513 300.384L80.1011 297.252L80.8611 293.344L84.0138 290.695L87.1151 289.134L89.816 288.795L91.608 289.016L90.9507 286.418L91.2383 283.773L92.6298 281.221L95.4898 278.839L99.4949 278.053L104.013 280.2L105.877 284.775L106.442 289.144L107.526 293.272L109.523 296.677L113.323 300.394L132.696 319.202L136.747 322.668L140.942 324.218L146.031 325.04L150.523 325.779L153.928 327.386L156.018 330.924L156.172 334.303L155.216 337.733L153.625 340.197L150.641 341.958L147.514 342.518L145.656 342.42Z" fill="#7DACBC"/>
<path d="M297.864 402.145C300.801 399.86 301.993 396.056 301.094 392.03C300.231 387.712 296.498 386.028 293.536 386.377C288.026 386.141 285.243 391.06 282.209 395.306C279.913 398.808 276.54 401.195 272.735 402.828C267.816 404.938 262.841 406.828 257.824 408.728C255.626 409.559 253.382 410.283 251.216 411.156C247.149 412.799 242.8 414.309 238.348 413.975C233.691 413.626 229.527 409.719 224.967 412.435C218.333 416.388 221.111 426.031 228.243 426.622" stroke="#7DACBC" stroke-width="3.4984" stroke-miterlimit="10" stroke-linecap="round" stroke-linejoin="round"/>
<path d="M230.024 425.107C228.278 426.493 226.948 428.573 226.548 430.298C225.634 436.064 229.459 440.033 234.548 441.204C240.314 442.118 242.583 435.843 245.618 431.597C247.302 429.245 249.71 426.693 252.437 425.661C254.162 425.009 255.892 424.352 257.618 423.7C262.552 421.836 267.481 419.967 272.416 418.103C275.589 416.902 278.767 415.7 281.941 414.499C283.281 413.99 284.452 413.482 285.889 413.292C289.258 412.84 292.236 413.61 295.363 414.725C298.084 415.695 300.847 416.306 303.445 414.642C309.997 410.453 306.767 400.733 299.414 400.579" stroke="#7DACBC" stroke-width="3.4984" stroke-miterlimit="10" stroke-linecap="round" stroke-linejoin="round"/>
<path d="M228.006 426.77L225.521 426.005L223.133 424.193L221.346 421.646L221.069 418.873L221.495 416.316L222.676 414.283L224.689 412.578L227.395 411.551L230.958 411.782L234.845 413.123L238.214 413.888L241.243 413.857L244.771 413.236L248.375 412.121L270.968 403.454L275.117 401.529L278.767 398.997L281.833 395.603L284.416 391.937L286.439 389.478L289.396 387.172L293.412 386.305L296.739 386.592L299.948 388.939L301.011 392.918L301.108 396.389L300.266 398.977L299.311 400.507L301.94 401.015L304.215 402.402L305.93 404.743L306.875 408.342L305.884 412.301L302.028 415.479L297.088 415.228L292.898 413.883L288.698 413.112L284.765 413.477L279.784 415.336L254.532 424.891L249.674 427.089L246.491 430.226L243.585 434.482L241.007 438.241L238.106 440.639L234.019 441.029L230.892 439.735L228.191 437.414L226.64 434.924L226.311 431.479L227.133 428.408L228.006 426.77Z" fill="#7DACBC"/>
<path d="M90.0933 502.947C86.6171 501.617 82.7455 502.577 79.7725 505.427C76.5223 508.4 77.0203 512.466 78.8534 514.823C81.5029 519.655 87.1562 519.485 92.3628 519.881C96.5476 520.03 100.337 521.678 103.71 524.086C108.065 527.197 112.26 530.478 116.48 533.78C118.334 535.228 120.116 536.773 121.985 538.175C125.497 540.804 129.04 543.736 131.063 547.72C133.178 551.884 131.992 557.471 136.68 559.961C143.499 563.586 150.308 556.208 147.114 549.81" stroke="#7DACBC" stroke-width="3.4984" stroke-miterlimit="10" stroke-linecap="round" stroke-linejoin="round"/>
<path d="M144.891 549.055C146.986 549.831 149.45 549.892 151.129 549.338C156.531 547.135 157.948 541.805 156.31 536.845C154.107 531.444 147.561 532.753 142.354 532.358C139.474 532.137 136.044 531.403 133.743 529.6C132.29 528.46 130.832 527.321 129.379 526.186C125.225 522.936 121.071 519.685 116.922 516.43C114.247 514.335 111.577 512.246 108.902 510.151C107.772 509.267 106.73 508.528 105.821 507.404C103.69 504.759 102.802 501.812 102.134 498.557C101.554 495.728 100.645 493.047 97.8775 491.687C90.8994 488.257 84.2603 496.051 87.9367 502.423" stroke="#7DACBC" stroke-width="3.4984" stroke-miterlimit="10" stroke-linecap="round" stroke-linejoin="round"/>
<path d="M147.355 549.923L147.992 552.444L147.679 555.422L146.426 558.272L144.197 559.946L141.794 560.911L139.443 560.947L136.937 560.115L134.662 558.328L133.014 555.165L132.146 551.145L131.053 547.864L129.451 545.292L127.099 542.596L124.275 540.09L105.153 525.267L101.354 522.715L97.3024 520.907L92.8044 520.04L88.3321 519.732L85.1794 519.275L81.6775 517.945L78.8534 514.956L77.3746 511.968L77.7187 508.004L80.5735 505.031L83.49 503.152L86.1395 502.526L87.9418 502.551L87.0176 500.046L87.0227 497.381L88.1318 494.701L90.7248 492.02L94.622 490.819L99.3408 492.472L101.682 496.826L102.704 501.109L104.224 505.098L106.57 508.271L110.745 511.568L132.008 528.214L136.403 531.228L140.737 532.322L145.882 532.599L150.431 532.861L153.984 534.093L156.439 537.389L156.952 540.737L156.367 544.249L155.042 546.868L152.264 548.932L149.214 549.82L147.355 549.923Z" fill="#7DACBC"/>
<path d="M377.543 333.177C375.438 330.107 371.705 328.695 367.639 329.352C363.274 329.953 361.374 333.578 361.544 336.561C360.979 342.045 365.728 345.115 369.785 348.401C373.143 350.902 375.325 354.409 376.732 358.306C378.545 363.343 380.136 368.421 381.733 373.54C382.432 375.784 383.022 378.069 383.767 380.282C385.163 384.441 386.411 388.867 385.815 393.293C385.189 397.919 381.04 401.847 383.479 406.561C387.027 413.415 396.824 411.218 397.836 404.137" stroke="#7DACBC" stroke-width="3.4984" stroke-miterlimit="10" stroke-linecap="round" stroke-linejoin="round"/>
<path d="M396.429 402.258C397.712 404.086 399.705 405.534 401.404 406.032C407.104 407.29 411.294 403.706 412.767 398.7C414.025 393 407.895 390.361 403.833 387.075C401.584 385.257 399.181 382.7 398.313 379.917C397.764 378.156 397.214 376.39 396.665 374.629C395.094 369.592 393.528 364.56 391.956 359.523C390.945 356.283 389.933 353.043 388.927 349.798C388.501 348.432 388.064 347.231 387.957 345.788C387.705 342.399 388.65 339.472 389.954 336.412C391.084 333.758 391.859 331.031 390.354 328.341C386.56 321.553 376.665 324.197 376.075 331.529" stroke="#7DACBC" stroke-width="3.4984" stroke-miterlimit="10" stroke-linecap="round" stroke-linejoin="round"/>
<path d="M397.969 404.374L397.06 406.813L395.109 409.082L392.46 410.715L389.677 410.828L387.15 410.253L385.189 408.949L383.608 406.839L382.745 404.081L383.186 400.539L384.758 396.734L385.723 393.417L385.867 390.393L385.461 386.834L384.563 383.168L377.251 360.104L375.577 355.847L373.266 352.053L370.062 348.792L366.555 345.994L364.219 343.827L362.093 340.741L361.467 336.68L361.955 333.378L364.486 330.313L368.522 329.486L371.993 329.599L374.524 330.59L375.998 331.638L376.66 329.045L378.18 326.857L380.614 325.281L384.27 324.552L388.162 325.774L391.104 329.815L390.56 334.729L388.968 338.836L387.951 342.98L388.075 346.928L389.636 352.012L397.677 377.787L399.576 382.768L402.524 386.131L406.601 389.284L410.195 392.082L412.418 395.116L412.562 399.219L411.083 402.264L408.608 404.821L406.031 406.228L402.57 406.351L399.556 405.345L397.969 404.374Z" fill="#7DACBC"/>
<path d="M366.761 516.482C364.655 513.411 360.922 511.999 356.856 512.657C352.491 513.257 350.591 516.882 350.761 519.865C350.196 525.349 354.946 528.42 359.002 531.706C362.36 534.206 364.542 537.713 365.949 541.61C367.762 546.647 369.354 551.726 370.95 556.845C371.649 559.088 372.239 561.373 372.984 563.586C374.38 567.745 375.628 572.171 375.033 576.597C374.406 581.224 370.257 585.152 372.696 589.865C376.244 596.72 386.041 594.522 387.053 587.442" stroke="#7DACBC" stroke-width="3.4984" stroke-miterlimit="10" stroke-linecap="round" stroke-linejoin="round"/>
<path d="M385.646 585.562C386.93 587.39 388.922 588.838 390.621 589.336C396.321 590.594 400.511 587.01 401.985 582.004C403.243 576.304 397.112 573.665 393.05 570.379C390.801 568.562 388.398 566.005 387.53 563.222C386.981 561.46 386.432 559.694 385.882 557.933C384.311 552.896 382.745 547.864 381.174 542.827C380.162 539.587 379.151 536.347 378.144 533.102C377.718 531.736 377.282 530.535 377.174 529.092C376.922 525.703 377.867 522.777 379.171 519.716C380.301 517.062 381.076 514.335 379.572 511.645C375.777 504.857 365.883 507.501 365.292 514.833" stroke="#7DACBC" stroke-width="3.4984" stroke-miterlimit="10" stroke-linecap="round" stroke-linejoin="round"/>
<path d="M387.186 587.679L386.277 590.117L384.326 592.387L381.677 594.02L378.894 594.133L376.368 593.558L374.406 592.253L372.825 590.143L371.962 587.386L372.404 583.843L373.975 580.038L374.94 576.721L375.084 573.697L374.678 570.139L373.78 566.473L366.468 543.408L364.794 539.152L362.483 535.357L359.279 532.097L355.772 529.298L353.436 527.132L351.31 524.046L350.684 519.984L351.172 516.683L353.703 513.617L357.739 512.791L361.21 512.904L363.741 513.895L365.215 514.942L365.877 512.349L367.397 510.162L369.831 508.586L373.487 507.856L377.379 509.078L380.321 513.119L379.777 518.033L378.185 522.141L377.169 526.284L377.292 530.233L378.853 535.316L386.894 561.092L388.793 566.072L391.741 569.435L395.818 572.588L399.412 575.386L401.635 578.421L401.779 582.523L400.3 585.568L397.825 588.125L395.248 589.532L391.787 589.655L388.773 588.649L387.186 587.679Z" fill="#7DACBC"/>
<path d="M522.213 500.031C518.758 498.66 514.871 499.564 511.862 502.382C508.575 505.314 509.022 509.386 510.824 511.763C513.412 516.631 519.066 516.528 524.267 516.995C528.452 517.196 532.221 518.895 535.558 521.344C539.871 524.512 544.025 527.845 548.205 531.203C550.038 532.676 551.799 534.242 553.653 535.665C557.134 538.34 560.636 541.318 562.608 545.323C564.667 549.513 563.414 555.084 568.066 557.636C574.834 561.348 581.74 554.057 578.628 547.618" stroke="#7DACBC" stroke-width="3.4984" stroke-miterlimit="10" stroke-linecap="round" stroke-linejoin="round"/>
<path d="M576.42 546.833C578.505 547.634 580.969 547.726 582.654 547.192C588.086 545.056 589.565 539.747 587.994 534.766C585.858 529.334 579.296 530.566 574.099 530.099C571.219 529.842 567.799 529.062 565.524 527.234C564.087 526.079 562.644 524.918 561.206 523.763C557.093 520.461 552.985 517.155 548.873 513.853C546.228 511.728 543.579 509.602 540.934 507.476C539.82 506.578 538.783 505.828 537.889 504.688C535.789 502.018 534.942 499.06 534.316 495.795C533.771 492.961 532.893 490.265 530.146 488.868C523.214 485.351 516.473 493.063 520.072 499.476" stroke="#7DACBC" stroke-width="3.4984" stroke-miterlimit="10" stroke-linecap="round" stroke-linejoin="round"/>
<path d="M578.875 547.731L579.475 550.262L579.126 553.235L577.837 556.069L575.588 557.717L573.175 558.647L570.818 558.657L568.328 557.789L566.074 555.977L564.467 552.788L563.65 548.758L562.598 545.466L561.032 542.873L558.711 540.147L555.923 537.605L536.986 522.541L533.222 519.942L529.191 518.079L524.709 517.16L520.242 516.79L517.094 516.297L513.608 514.921L510.819 511.897L509.382 508.888L509.777 504.929L512.668 501.997L515.61 500.149L518.265 499.563L520.067 499.61L519.174 497.088L519.215 494.424L520.36 491.759L522.983 489.115L526.896 487.964L531.594 489.674L533.879 494.059L534.85 498.352L536.318 502.362L538.624 505.566L542.752 508.913L563.799 525.827L568.158 528.897L572.477 530.047L577.622 530.391L582.166 530.71L585.704 531.988L588.112 535.315L588.584 538.668L587.953 542.17L586.597 544.773L583.799 546.801L580.733 547.654L578.875 547.731Z" fill="#7DACBC"/>
<path d="M737.039 493.669C735.221 490.424 731.632 488.678 727.519 488.966C723.118 489.171 720.9 492.611 720.797 495.594C719.74 501.006 724.191 504.493 727.94 508.128C731.062 510.921 732.915 514.613 733.963 518.618C735.313 523.794 736.443 529 737.567 534.242C738.06 536.543 738.44 538.869 738.985 541.138C740.001 545.405 740.843 549.929 739.847 554.283C738.805 558.832 734.317 562.37 736.325 567.283C739.241 574.431 749.197 573.121 750.841 566.164" stroke="#7DACBC" stroke-width="3.4984" stroke-miterlimit="10" stroke-linecap="round" stroke-linejoin="round"/>
<path d="M749.624 564.172C750.738 566.108 752.591 567.73 754.235 568.382C759.801 570.148 764.293 566.96 766.214 562.103C767.98 556.537 762.111 553.358 758.368 549.723C756.294 547.71 754.132 544.948 753.516 542.098C753.125 540.291 752.74 538.489 752.35 536.681C751.241 531.526 750.132 526.371 749.023 521.216C748.309 517.899 747.595 514.577 746.882 511.26C746.579 509.858 746.255 508.626 746.276 507.178C746.327 503.784 747.534 500.95 749.11 498.023C750.476 495.481 751.493 492.837 750.24 490.018C747.077 482.917 736.982 484.658 735.729 491.908" stroke="#7DACBC" stroke-width="3.4984" stroke-miterlimit="10" stroke-linecap="round" stroke-linejoin="round"/>
<path d="M750.964 566.415L749.834 568.761L747.688 570.851L744.905 572.237L742.122 572.099L739.657 571.298L737.824 569.824L736.437 567.575L735.826 564.751L736.586 561.26L738.491 557.619L739.754 554.4L740.17 551.401L740.088 547.822L739.523 544.09L734.322 520.46L733.038 516.065L731.082 512.081L728.181 508.543L724.946 505.442L722.81 503.075L720.972 499.809L720.715 495.707L721.496 492.461L724.294 489.637L728.386 489.18L731.837 489.602L734.271 490.818L735.637 491.994L736.535 489.473L738.24 487.43L740.812 486.079L744.514 485.684L748.283 487.255L750.851 491.542L749.86 496.384L747.908 500.333L746.522 504.369L746.291 508.312L747.385 513.513L753.069 539.91L754.512 545.039L757.141 548.659L760.92 552.161L764.247 555.273L766.188 558.497L765.962 562.6L764.216 565.501L761.515 567.822L758.825 568.987L755.369 568.797L752.453 567.524L750.964 566.415Z" fill="#7DACBC"/>
<path d="M807.44 332.936C805.119 330.024 801.299 328.885 797.289 329.829C792.981 330.743 791.343 334.497 791.728 337.454C791.559 342.963 796.514 345.685 800.796 348.673C804.323 350.927 806.752 354.27 808.431 358.059C810.598 362.952 812.549 367.907 814.511 372.898C815.368 375.085 816.118 377.324 817.022 379.475C818.711 383.527 820.272 387.85 819.995 392.307C819.702 396.969 815.841 401.179 818.613 405.703C822.644 412.285 832.256 409.39 832.759 402.258" stroke="#7DACBC" stroke-width="3.4984" stroke-miterlimit="10" stroke-linecap="round" stroke-linejoin="round"/>
<path d="M831.224 400.486C832.636 402.216 834.726 403.521 836.456 403.895C842.233 404.743 846.156 400.866 847.265 395.767C848.112 389.991 841.807 387.799 837.524 384.81C835.152 383.157 832.575 380.78 831.506 378.063C830.834 376.343 830.156 374.623 829.483 372.903C827.558 367.995 825.632 363.086 823.707 358.172C822.469 355.014 821.227 351.851 819.989 348.694C819.466 347.359 818.942 346.193 818.731 344.761C818.238 341.403 818.973 338.409 820.051 335.267C820.991 332.535 821.566 329.762 819.871 327.185C815.604 320.685 805.92 324.027 805.859 331.385" stroke="#7DACBC" stroke-width="3.4984" stroke-miterlimit="10" stroke-linecap="round" stroke-linejoin="round"/>
<path d="M832.908 402.484L832.174 404.98L830.392 407.388L827.866 409.205L825.098 409.519L822.536 409.123L820.487 407.963L818.757 405.971L817.704 403.28L817.889 399.717L819.183 395.809L819.907 392.436L819.835 389.406L819.178 385.889L818.018 382.295L809.078 359.811L807.101 355.683L804.529 352.068L801.094 349.038L797.402 346.502L794.912 344.51L792.575 341.583L791.656 337.573L791.908 334.246L794.213 331.006L798.177 329.897L801.648 329.758L804.246 330.569L805.787 331.504L806.264 328.87L807.625 326.58L809.941 324.839L813.53 323.848L817.504 324.793L820.729 328.608L820.534 333.547L819.24 337.758L818.521 341.968L818.932 345.891L820.852 350.851L830.711 375.99L832.965 380.816L836.143 383.964L840.436 386.813L844.225 389.35L846.659 392.22L847.095 396.302L845.837 399.444L843.552 402.171L841.083 403.758L837.642 404.127L834.556 403.342L832.908 402.484Z" fill="#7DACBC"/>
<path d="M523.461 287.413C519.959 286.165 516.108 287.207 513.197 290.129C510.018 293.174 510.604 297.23 512.493 299.541C515.256 304.316 520.899 304.013 526.116 304.29C530.3 304.341 534.131 305.902 537.556 308.239C541.977 311.253 546.249 314.436 550.546 317.645C552.431 319.052 554.249 320.556 556.148 321.912C559.722 324.459 563.327 327.314 565.442 331.247C567.65 335.359 566.592 340.971 571.337 343.359C578.233 346.825 584.877 339.298 581.539 332.972" stroke="#7DACBC" stroke-width="3.4984" stroke-miterlimit="10" stroke-linecap="round" stroke-linejoin="round"/>
<path d="M579.29 332.269C581.401 332.998 583.865 332.998 585.534 332.407C590.885 330.081 592.179 324.721 590.433 319.802C588.107 314.452 581.591 315.91 576.379 315.633C573.493 315.479 570.048 314.816 567.712 313.076C566.233 311.972 564.754 310.863 563.27 309.759C559.044 306.601 554.819 303.448 550.593 300.29C547.871 298.257 545.155 296.229 542.434 294.196C541.289 293.338 540.226 292.625 539.291 291.515C537.099 288.923 536.149 285.996 535.409 282.756C534.767 279.942 533.792 277.282 530.999 275.983C523.944 272.713 517.484 280.656 521.304 286.941" stroke="#7DACBC" stroke-width="3.4984" stroke-miterlimit="10" stroke-linecap="round" stroke-linejoin="round"/>
<path d="M581.776 333.08L582.47 335.585L582.223 338.569L581.037 341.449L578.85 343.174L576.467 344.186L574.115 344.283L571.594 343.503L569.279 341.773L567.558 338.646L566.598 334.646L565.433 331.391L563.774 328.854L561.356 326.215L558.48 323.771L539.025 309.384L535.169 306.919L531.076 305.204L526.563 304.439L522.086 304.234L518.923 303.849L515.39 302.596L512.499 299.674L510.954 296.717L511.205 292.748L513.993 289.713L516.869 287.767L519.503 287.084L521.305 287.069L520.319 284.579L520.268 281.919L521.315 279.213L523.847 276.476L527.718 275.188L532.473 276.728L534.912 281.031L536.031 285.287L537.644 289.241L540.057 292.363L544.309 295.561L565.941 311.72L570.403 314.636L574.757 315.633L579.907 315.792L584.462 315.951L588.046 317.101L590.572 320.341L591.163 323.673L590.654 327.201L589.391 329.845L586.665 331.976L583.63 332.936L581.776 333.08Z" fill="#7DACBC"/>
<path d="M725.357 185.928C728.068 183.381 728.895 179.474 727.621 175.556C726.358 171.335 722.482 170.011 719.565 170.637C714.061 170.92 711.75 176.08 709.126 180.593C707.17 184.295 704.038 186.991 700.397 188.973C695.699 191.535 690.919 193.886 686.107 196.248C683.997 197.286 681.83 198.215 679.756 199.288C675.859 201.306 671.674 203.216 667.207 203.303C662.539 203.391 658.026 199.894 653.738 203.026C647.505 207.586 651.181 216.925 658.334 216.838" stroke="#7DACBC" stroke-width="3.4984" stroke-miterlimit="10" stroke-linecap="round" stroke-linejoin="round"/>
<path d="M659.977 215.164C658.37 216.71 657.24 218.902 657.004 220.658C656.634 226.481 660.814 230.075 665.99 230.763C671.813 231.133 673.486 224.668 676.11 220.155C677.563 217.654 679.72 214.892 682.339 213.608C683.997 212.797 685.656 211.981 687.314 211.169C692.048 208.849 696.782 206.528 701.522 204.202C704.572 202.708 707.617 201.214 710.667 199.719C711.95 199.088 713.07 198.472 714.482 198.143C717.788 197.373 720.828 197.861 724.053 198.682C726.851 199.396 729.665 199.74 732.094 197.845C738.219 193.06 734.096 183.684 726.759 184.223" stroke="#7DACBC" stroke-width="3.4984" stroke-miterlimit="10" stroke-linecap="round" stroke-linejoin="round"/>
<path d="M658.123 217.013L655.577 216.484L653.035 214.903L651.012 212.536L650.473 209.804L650.657 207.222L651.648 205.086L653.492 203.196L656.085 201.923L659.653 201.815L663.653 202.785L667.078 203.232L670.092 202.914L673.543 201.964L677.029 200.516L698.703 189.759L702.656 187.454L706.051 184.594L708.782 180.922L711.011 177.036L712.792 174.391L715.519 171.819L719.437 170.576L722.774 170.551L726.194 172.584L727.621 176.45L728.048 179.895L727.452 182.55L726.646 184.162L729.305 184.424L731.703 185.59L733.629 187.756L734.913 191.253L734.296 195.289L730.754 198.816L725.814 199.027L721.516 198.082L717.265 197.712L713.383 198.442L708.597 200.762L684.356 212.649L679.725 215.293L676.849 218.718L674.359 223.226L672.146 227.211L669.486 229.87L665.451 230.646L662.216 229.649L659.309 227.59L657.528 225.259L656.876 221.86L657.41 218.723L658.123 217.013Z" fill="#7DACBC"/>
<path d="M550.567 65.0201C550.947 61.3181 549.022 57.8266 545.494 55.6957C541.782 53.3287 537.982 54.8639 536.185 57.2464C532.205 61.0614 533.838 66.4732 534.804 71.6026C535.748 75.6846 535.137 79.7717 533.684 83.6483C531.81 88.6597 529.731 93.5632 527.636 98.4975C526.716 100.659 525.684 102.785 524.822 104.952C523.194 109.029 521.279 113.208 517.957 116.196C514.486 119.318 508.781 119.626 507.59 124.797C505.859 132.319 514.747 136.981 520.103 132.242" stroke="#7DACBC" stroke-width="3.4984" stroke-miterlimit="10" stroke-linecap="round" stroke-linejoin="round"/>
<path d="M520.247 129.905C520.041 132.128 520.622 134.526 521.592 136.005C525.125 140.652 530.639 140.636 535.004 137.771C539.651 134.239 536.683 128.262 535.718 123.127C535.184 120.288 535.004 116.781 536.144 114.101C536.868 112.401 537.587 110.702 538.311 109.002C540.375 104.15 542.434 99.2927 544.498 94.4405C545.828 91.3136 547.152 88.1918 548.482 85.0648C549.042 83.7452 549.484 82.5489 550.341 81.3782C552.339 78.6312 554.957 77.0138 557.93 75.5248C560.513 74.2309 562.865 72.6546 563.46 69.6303C564.965 62.0003 555.707 57.6103 550.511 62.8167" stroke="#7DACBC" stroke-width="3.4984" stroke-miterlimit="10" stroke-linecap="round" stroke-linejoin="round"/>
<path d="M520.052 132.513L517.782 133.776L514.824 134.249L511.749 133.781L509.551 132.061L508 129.992L507.348 127.728L507.508 125.094L508.637 122.434L511.271 120.021L514.927 118.136L517.808 116.231L519.877 114.018L521.869 111.045L523.559 107.672L532.914 85.3572L534.393 81.0237L535.091 76.6439L534.757 72.0741L533.895 67.6789L533.515 64.516L533.895 60.7832L536.046 57.2814L538.552 55.0787L542.47 54.3804L546.079 56.3674L548.652 58.6985L549.941 61.0913L550.382 62.8421L552.57 61.2966L555.142 60.6086L558.023 60.9886L561.278 62.7959L563.45 66.2464L563.08 71.2372L559.481 74.626L555.614 76.726L552.154 79.2266L549.694 82.3176L547.594 87.2005L537.037 112.052L535.266 117.079L535.332 121.551L536.4 126.593L537.33 131.05L537.058 134.803L534.511 138.028L531.415 139.393L527.872 139.737L525.001 139.137L522.285 136.996L520.632 134.274L520.052 132.513Z" fill="#7DACBC"/>
<path d="M396.121 191.617L395.212 194.051L393.271 196.33L390.621 197.968L387.838 198.087L385.312 197.517L383.351 196.212L381.759 194.107L380.896 191.35L381.333 187.802L382.894 184.002L383.854 180.68L383.993 177.656L383.577 174.098L382.673 170.437L375.32 147.383L373.636 143.126L371.325 139.342L368.111 136.081L364.599 133.293L362.257 131.132L360.127 128.046L359.49 123.984L359.972 120.683L362.499 117.612L366.535 116.781L370.006 116.883L372.542 117.874L374.011 118.917L374.673 116.324L376.183 114.131L378.622 112.555L382.272 111.815L386.165 113.032L389.117 117.068L388.578 121.982L386.996 126.09L385.985 130.238L386.118 134.187L387.69 139.265L395.777 165.025L397.687 170L400.639 173.364L404.721 176.506L408.321 179.299L410.549 182.329L410.703 186.436L409.23 189.481L406.76 192.043L404.182 193.45L400.726 193.583L397.707 192.582L396.121 191.617Z" fill="#EFEC7F"/>
<path d="M375.875 120.852C373.764 117.787 370.026 116.385 365.96 117.053C361.6 117.664 359.706 121.294 359.885 124.277C359.336 129.761 364.091 132.821 368.157 136.097C371.52 138.587 373.713 142.094 375.13 145.986C376.958 151.018 378.56 156.096 380.167 161.21C380.871 163.454 381.466 165.734 382.216 167.947C383.623 172.101 384.881 176.527 384.296 180.953C383.679 185.579 379.541 189.517 381.995 194.226C385.564 201.07 395.35 198.847 396.341 191.766" stroke="#7DACBC" stroke-width="3.4984" stroke-miterlimit="10" stroke-linecap="round" stroke-linejoin="round"/>
<path d="M394.929 189.887C396.218 191.71 398.216 193.158 399.915 193.651C405.62 194.893 409.8 191.299 411.263 186.288C412.506 180.583 406.37 177.959 402.303 174.683C400.054 172.871 397.641 170.319 396.768 167.536C396.213 165.775 395.659 164.014 395.104 162.247C393.523 157.216 391.941 152.184 390.36 147.157C389.343 143.917 388.321 140.682 387.304 137.442C386.873 136.077 386.437 134.875 386.324 133.432C386.062 130.043 387.002 127.112 388.295 124.051C389.42 121.392 390.185 118.665 388.675 115.975C384.866 109.197 374.976 111.862 374.406 119.199" stroke="#7DACBC" stroke-width="3.4984" stroke-miterlimit="10" stroke-linecap="round" stroke-linejoin="round"/>
<path d="M396.475 191.998L395.571 194.437L393.625 196.716L390.981 198.354L388.198 198.478L385.672 197.908L383.705 196.609L382.118 194.498L381.251 191.741L381.682 188.198L383.243 184.393L384.198 181.071L384.337 178.047L383.921 174.489L383.017 170.828L375.649 147.779L373.965 143.527L371.649 139.738L368.429 136.483L364.922 133.695L362.576 131.533L360.445 128.452L359.808 124.391L360.286 121.089L362.812 118.019L366.843 117.187L370.314 117.285L372.855 118.27L374.324 119.313L374.981 116.72L376.496 114.527L378.93 112.951L382.581 112.212L386.473 113.423L389.43 117.459L388.896 122.373L387.315 126.481L386.308 130.629L386.442 134.578L388.018 139.656L396.116 165.411L398.031 170.386L400.983 173.744L405.065 176.887L408.67 179.675L410.898 182.704L411.058 186.812L409.584 189.862L407.114 192.424L404.542 193.831L401.081 193.964L398.062 192.968L396.475 191.998Z" fill="#7DACBC"/>
<path d="M799.065 117.048L800.688 119.086L801.633 121.926L801.669 125.037L800.329 127.481L798.537 129.35L796.411 130.362L793.787 130.634L790.973 129.951L788.165 127.743L785.715 124.442L783.369 121.905L780.848 120.226L777.592 118.742L773.988 117.623L750.45 112.016L745.932 111.261L741.495 111.287L737.044 112.355L732.844 113.921L729.783 114.809L726.045 115.04L722.235 113.484L719.658 111.369L718.333 107.621L719.704 103.739L721.588 100.817L723.74 99.1538L725.393 98.4349L723.514 96.53L722.42 94.1013L722.328 91.2003L723.581 87.6934L726.636 84.9926L731.616 84.5459L735.544 87.5445L738.245 91.0206L741.275 94.0295L744.725 95.9498L749.886 97.2283L776.124 103.611L781.371 104.545L785.772 103.754L790.573 101.88L794.819 100.237L798.567 99.8983L802.162 101.885L804.01 104.72L804.929 108.16L804.806 111.092L803.132 114.121L800.714 116.19L799.065 117.048Z" fill="#7DACBC"/>
<path d="M721.824 390.777L724.345 391.398L726.831 393.072L728.756 395.516L729.193 398.268L728.91 400.846L727.842 402.941L725.927 404.758L723.282 405.934L719.714 405.898L715.755 404.779L712.351 404.204L709.326 404.409L705.84 405.226L702.302 406.54L680.238 416.46L676.197 418.617L672.701 421.343L669.825 424.906L667.453 428.711L665.569 431.284L662.75 433.748L658.786 434.842L655.453 434.739L652.111 432.578L650.832 428.665L650.539 425.204L651.233 422.57L652.1 420.994L649.451 420.629L647.099 419.377L645.256 417.133L644.111 413.59L644.876 409.585L648.552 406.191L653.497 406.17L657.759 407.28L661.995 407.808L665.897 407.228L670.765 405.092L695.447 394.135L700.171 391.67L703.175 388.359L705.835 383.943L708.197 380.051L710.959 377.494L715.021 376.873L718.215 377.992L721.039 380.159L722.733 382.557L723.252 385.976L722.605 389.088L721.824 390.777Z" fill="#7DACBC"/>
<path d="M653.456 419.279C650.652 421.723 649.677 425.594 650.801 429.558C651.9 433.82 655.726 435.294 658.663 434.78C664.177 434.708 666.678 429.64 669.471 425.23C671.566 421.605 674.801 419.032 678.508 417.189C683.299 414.807 688.166 412.64 693.065 410.463C695.211 409.508 697.414 408.661 699.53 407.664C703.499 405.795 707.755 404.045 712.222 404.132C716.89 404.219 721.27 407.89 725.67 404.923C732.068 400.604 728.756 391.131 721.609 390.946" stroke="#7DACBC" stroke-width="3.4984" stroke-miterlimit="10" stroke-linecap="round" stroke-linejoin="round"/>
<path d="M719.899 392.548C721.568 391.065 722.774 388.913 723.077 387.173C723.668 381.365 719.627 377.617 714.482 376.729C708.674 376.138 706.759 382.531 703.966 386.941C702.42 389.386 700.156 392.066 697.491 393.247C695.802 393.996 694.112 394.746 692.428 395.496C687.607 397.637 682.785 399.778 677.969 401.914C674.868 403.29 671.761 404.671 668.66 406.047C667.35 406.627 666.211 407.203 664.788 407.475C661.451 408.116 658.431 407.516 655.248 406.576C652.48 405.76 649.682 405.303 647.181 407.11C640.876 411.659 644.645 421.184 651.993 420.927" stroke="#7DACBC" stroke-width="3.4984" stroke-miterlimit="10" stroke-linecap="round" stroke-linejoin="round"/>
<path d="M339.824 564.824C334.864 566.662 333.827 573.927 339.12 576.073C341.359 576.982 344.137 576.361 345.775 574.579C347.413 572.798 347.803 569.984 346.71 567.822C345.508 565.46 342.402 563.863 339.824 564.824Z" fill="#B0DEEA"/>
<path d="M44.4972 377.674C36.1893 380.754 34.4538 392.928 43.3162 396.523C47.0697 398.048 51.7217 397 54.4636 394.017C57.2056 391.034 57.8577 386.315 56.0297 382.7C54.0221 378.742 48.8206 376.072 44.4972 377.674Z" fill="#B0DEEA"/>
<path d="M161.055 245.715C152.747 248.796 151.011 260.97 159.874 264.564C163.627 266.089 168.279 265.041 171.021 262.058C173.763 259.075 174.415 254.356 172.587 250.742C170.58 246.783 165.378 244.113 161.055 245.715Z" fill="#B0DEEA"/>
<path d="M265.289 335.57C256.981 338.651 255.245 350.825 264.108 354.419C267.861 355.944 272.513 354.896 275.255 351.913C277.997 348.93 278.649 344.211 276.821 340.597C274.814 336.638 269.612 333.968 265.289 335.57Z" fill="#B0DEEA"/>
<path d="M154.975 286.016C150.015 287.854 148.978 295.12 154.272 297.266C156.51 298.175 159.288 297.553 160.926 295.772C162.564 293.99 162.955 291.176 161.861 289.015C160.659 286.653 157.553 285.056 154.975 286.016Z" fill="#B0DEEA"/>
<path d="M229.428 358.927C224.468 360.765 223.431 368.031 228.725 370.177C230.963 371.086 233.741 370.464 235.379 368.683C237.017 366.901 237.407 364.087 236.314 361.926C235.112 359.564 232.006 357.967 229.428 358.927Z" fill="#B0DEEA"/>
<path d="M355.228 383.573C350.268 385.411 349.231 392.677 354.525 394.823C356.763 395.732 359.541 395.11 361.179 393.329C362.817 391.547 363.207 388.733 362.114 386.572C360.912 384.21 357.806 382.613 355.228 383.573Z" fill="#B0DEEA"/>
<path d="M212.458 313.902C208.982 315.19 208.253 320.289 211.965 321.794C213.536 322.43 215.482 321.994 216.633 320.746C217.783 319.498 218.055 317.522 217.29 316.007C216.443 314.343 214.265 313.229 212.458 313.902Z" fill="#B0DEEA"/>
<path d="M391.089 234.419C382.781 237.499 381.045 249.674 389.908 253.268C393.661 254.793 398.313 253.745 401.055 250.762C403.797 247.779 404.449 243.06 402.621 239.445C400.614 235.487 395.412 232.817 391.089 234.419Z" fill="#B0DEEA"/>
<path d="M371.146 261.37C366.186 263.208 365.148 270.474 370.442 272.62C372.681 273.529 375.459 272.907 377.097 271.126C378.735 269.344 379.125 266.53 378.031 264.369C376.83 262.007 373.723 260.41 371.146 261.37Z" fill="#B0DEEA"/>
<path d="M344.933 242.018C341.457 243.307 340.728 248.406 344.44 249.91C346.011 250.547 347.957 250.11 349.107 248.863C350.258 247.615 350.53 245.638 349.765 244.123C348.917 242.46 346.74 241.346 344.933 242.018Z" fill="#B0DEEA"/>
<path d="M408.09 347.79C404.614 349.079 403.884 354.178 407.597 355.682C409.168 356.319 411.114 355.883 412.264 354.635C413.414 353.387 413.687 351.41 412.921 349.896C412.074 348.232 409.897 347.118 408.09 347.79Z" fill="#B0DEEA"/>
<path d="M39.9581 308.608C34.998 310.447 33.9608 317.712 39.2547 319.858C41.4934 320.767 44.2713 320.146 45.9092 318.364C47.5472 316.582 47.9374 313.769 46.8437 311.607C45.6422 309.245 42.5357 307.648 39.9581 308.608Z" fill="#B0DEEA"/>
<path d="M2.96272 300.039C-0.513469 301.327 -1.2426 306.426 2.46979 307.93C4.041 308.567 5.98705 308.131 7.13722 306.883C8.28739 305.635 8.55953 303.659 7.79446 302.144C6.94723 300.48 4.77013 299.366 2.96272 300.039Z" fill="#B0DEEA"/>
<path d="M75.8753 405.811C72.3991 407.099 71.67 412.198 75.3824 413.702C76.9536 414.339 78.8996 413.903 80.0498 412.655C81.2 411.407 81.4721 409.431 80.7071 407.916C79.8598 406.252 77.6827 405.138 75.8753 405.811Z" fill="#B0DEEA"/>
<path d="M475.298 377.674C466.99 380.754 465.254 392.928 474.117 396.523C477.87 398.048 482.522 397 485.264 394.017C488.006 391.034 488.658 386.315 486.83 382.7C484.822 378.742 479.621 376.072 475.298 377.674Z" fill="#B0DEEA"/>
<path d="M591.855 245.715C583.547 248.796 581.811 260.97 590.674 264.564C594.427 266.089 599.079 265.041 601.821 262.058C604.563 259.075 605.215 254.356 603.387 250.742C601.38 246.783 596.178 244.113 591.855 245.715Z" fill="#B0DEEA"/>
<path d="M730.492 317.599C722.184 320.68 720.448 332.854 729.311 336.448C733.064 337.973 737.716 336.925 740.458 333.942C743.2 330.959 743.852 326.24 742.024 322.626C740.016 318.667 734.815 315.997 730.492 317.599Z" fill="#B0DEEA"/>
<path d="M585.776 286.016C580.815 287.854 579.778 295.12 585.072 297.266C587.311 298.175 590.089 297.553 591.727 295.772C593.365 293.99 593.755 291.176 592.661 289.015C591.46 286.653 588.353 285.056 585.776 286.016Z" fill="#B0DEEA"/>
<path d="M694.631 340.956C689.671 342.794 688.634 350.059 693.928 352.206C696.166 353.114 698.944 352.493 700.582 350.711C702.22 348.93 702.61 346.116 701.517 343.954C700.315 341.592 697.209 339.996 694.631 340.956Z" fill="#B0DEEA"/>
<path d="M786.028 383.573C781.068 385.411 780.031 392.677 785.325 394.823C787.564 395.732 790.342 395.11 791.98 393.329C793.618 391.547 794.008 388.733 792.914 386.572C791.713 384.21 788.606 382.613 786.028 383.573Z" fill="#B0DEEA"/>
<path d="M657.636 332.386C654.159 333.675 653.43 338.774 657.143 340.278C658.714 340.915 660.66 340.478 661.81 339.231C662.96 337.983 663.232 336.006 662.467 334.492C661.62 332.828 659.443 331.714 657.636 332.386Z" fill="#B0DEEA"/>
<path d="M821.889 234.419C813.581 237.499 811.846 249.674 820.708 253.268C824.461 254.793 829.113 253.745 831.855 250.762C834.597 247.779 835.249 243.06 833.421 239.445C831.414 235.487 826.212 232.817 821.889 234.419Z" fill="#B0DEEA"/>
<path d="M801.946 261.37C796.986 263.208 795.949 270.474 801.243 272.62C803.481 273.529 806.259 272.907 807.897 271.126C809.535 269.344 809.925 266.53 808.832 264.369C807.63 262.007 804.524 260.41 801.946 261.37Z" fill="#B0DEEA"/>
<path d="M775.733 242.018C772.257 243.307 771.528 248.406 775.24 249.91C776.812 250.547 778.758 250.11 779.908 248.863C781.058 247.615 781.33 245.638 780.565 244.123C779.718 242.46 777.541 241.346 775.733 242.018Z" fill="#B0DEEA"/>
<path d="M838.89 347.79C835.414 349.079 834.685 354.178 838.397 355.682C839.968 356.319 841.914 355.883 843.065 354.635C844.215 353.387 844.487 351.41 843.722 349.896C842.875 348.232 840.698 347.118 838.89 347.79Z" fill="#B0DEEA"/>
<path d="M470.758 308.608C465.798 310.447 464.761 317.712 470.055 319.858C472.294 320.767 475.072 320.146 476.71 318.364C478.347 316.582 478.738 313.769 477.644 311.607C476.443 309.245 473.336 307.648 470.758 308.608Z" fill="#B0DEEA"/>
<path d="M433.763 300.039C430.287 301.327 429.558 306.426 433.27 307.93C434.841 308.567 436.787 308.131 437.938 306.883C439.088 305.635 439.36 303.659 438.595 302.144C437.748 300.48 435.57 299.366 433.763 300.039Z" fill="#B0DEEA"/>
<path d="M506.676 405.811C503.199 407.099 502.47 412.198 506.183 413.702C507.754 414.339 509.7 413.903 510.85 412.655C512 411.407 512.272 409.431 511.507 407.916C510.66 406.252 508.483 405.138 506.676 405.811Z" fill="#B0DEEA"/>
<path d="M44.4972 164.589C36.1893 167.669 34.4538 179.844 43.3162 183.438C47.0697 184.963 51.7217 183.915 54.4636 180.932C57.2056 177.949 57.8577 173.23 56.0297 169.615C54.0221 165.657 48.8206 162.987 44.4972 164.589Z" fill="#B0DEEA"/>
<path d="M161.055 32.6302C152.747 35.7109 151.011 47.885 159.874 51.4792C163.627 53.0041 168.279 51.9567 171.021 48.9735C173.763 45.9903 174.415 41.2717 172.587 37.6569C170.58 33.6982 165.378 31.0282 161.055 32.6302Z" fill="#B0DEEA"/>
<path d="M253.479 166.129C245.171 169.21 243.436 181.384 252.298 184.978C256.052 186.503 260.704 185.456 263.446 182.472C266.187 179.489 266.84 174.77 265.012 171.156C263.004 167.197 257.803 164.527 253.479 166.129Z" fill="#B0DEEA"/>
<path d="M154.975 72.9313C150.015 74.7695 148.978 82.0349 154.272 84.1812C156.51 85.09 159.288 84.4687 160.926 82.687C162.564 80.9053 162.955 78.0916 161.861 75.9299C160.659 73.568 157.553 71.9712 154.975 72.9313Z" fill="#B0DEEA"/>
<path d="M217.618 189.486C212.658 191.324 211.621 198.59 216.915 200.736C219.154 201.645 221.932 201.024 223.57 199.242C225.207 197.46 225.598 194.646 224.504 192.485C223.303 190.123 220.196 188.526 217.618 189.486Z" fill="#B0DEEA"/>
<path d="M355.228 170.488C350.268 172.326 349.231 179.592 354.525 181.738C356.763 182.647 359.541 182.026 361.179 180.244C362.817 178.462 363.207 175.648 362.114 173.487C360.912 171.125 357.806 169.528 355.228 170.488Z" fill="#B0DEEA"/>
<path d="M192.433 137.273C188.957 138.562 188.227 143.66 191.94 145.165C193.511 145.801 195.457 145.365 196.607 144.117C197.757 142.87 198.03 140.893 197.264 139.378C196.417 137.714 194.24 136.6 192.433 137.273Z" fill="#B0DEEA"/>
<path d="M303.342 6.34117C299.866 7.62995 299.137 12.7286 302.849 14.233C304.42 14.8697 306.366 14.4333 307.517 13.1856C308.667 11.9379 308.939 9.96105 308.174 8.44635C307.327 6.78275 305.149 5.66854 303.342 6.34117Z" fill="#B0DEEA"/>
<path d="M391.089 21.334C382.781 24.4148 381.045 36.5888 389.908 40.183C393.661 41.708 398.313 40.6606 401.055 37.6774C403.797 34.6942 404.449 29.9755 402.621 26.3608C400.614 22.402 395.412 19.732 391.089 21.334Z" fill="#B0DEEA"/>
<path d="M371.146 48.2853C366.186 50.1235 365.148 57.3889 370.442 59.5352C372.681 60.444 375.459 59.8227 377.097 58.041C378.735 56.2593 379.125 53.4456 378.031 51.2839C376.83 48.922 373.723 47.3252 371.146 48.2853Z" fill="#B0DEEA"/>
<path d="M344.933 28.9332C341.457 30.222 340.728 35.3206 344.44 36.8251C346.011 37.4617 347.957 37.0253 349.107 35.7776C350.258 34.5299 350.53 32.5531 349.765 31.0384C348.917 29.3748 346.74 28.2606 344.933 28.9332Z" fill="#B0DEEA"/>
<path d="M408.09 134.705C404.614 135.994 403.884 141.093 407.597 142.597C409.168 143.234 411.114 142.797 412.264 141.55C413.414 140.302 413.687 138.325 412.921 136.811C412.074 135.147 409.897 134.033 408.09 134.705Z" fill="#B0DEEA"/>
<path d="M39.9581 95.5236C34.998 97.3618 33.9608 104.627 39.2547 106.773C41.4934 107.682 44.2713 107.061 45.9092 105.279C47.5472 103.498 47.9374 100.684 46.8437 98.5222C45.6422 96.1603 42.5357 94.5634 39.9581 95.5236Z" fill="#B0DEEA"/>
<path d="M2.96272 86.954C-0.513469 88.2427 -1.2426 93.3414 2.46979 94.8458C4.041 95.4825 5.98705 95.0461 7.13722 93.7983C8.28739 92.5506 8.55953 90.5738 7.79446 89.0591C6.94723 87.3955 4.77013 86.2813 2.96272 86.954Z" fill="#B0DEEA"/>
<path d="M75.8753 192.726C72.3991 194.015 71.67 199.114 75.3824 200.618C76.9536 201.255 78.8996 200.818 80.0498 199.571C81.2 198.323 81.4721 196.346 80.7071 194.831C79.8598 193.168 77.6827 192.054 75.8753 192.726Z" fill="#B0DEEA"/>
<path d="M475.298 164.589C466.99 167.669 465.254 179.844 474.117 183.438C477.87 184.963 482.522 183.915 485.264 180.932C488.006 177.949 488.658 173.23 486.83 169.615C484.822 165.657 479.621 162.987 475.298 164.589Z" fill="#B0DEEA"/>
<path d="M591.855 32.6302C583.547 35.7109 581.811 47.885 590.674 51.4792C594.427 53.0041 599.079 51.9567 601.821 48.9735C604.563 45.9903 605.215 41.2717 603.387 37.6569C601.38 33.6982 596.178 31.0282 591.855 32.6302Z" fill="#B0DEEA"/>
<path d="M696.089 122.485C687.781 125.566 686.046 137.74 694.908 141.334C698.662 142.859 703.314 141.812 706.056 138.828C708.797 135.845 709.45 131.127 707.622 127.512C705.614 123.553 700.413 120.883 696.089 122.485Z" fill="#B0DEEA"/>
<path d="M623.259 91.9294C618.299 93.7675 617.261 101.033 622.555 103.179C624.794 104.088 627.572 103.467 629.21 101.685C630.848 99.9034 631.238 97.0896 630.144 94.928C628.943 92.5661 625.836 90.9692 623.259 91.9294Z" fill="#B0DEEA"/>
<path d="M660.229 145.842C655.268 147.68 654.231 154.946 659.525 157.092C661.764 158.001 664.542 157.38 666.18 155.598C667.818 153.816 668.208 151.002 667.114 148.841C665.913 146.479 662.806 144.882 660.229 145.842Z" fill="#B0DEEA"/>
<path d="M786.028 170.488C781.068 172.326 780.031 179.592 785.325 181.738C787.564 182.647 790.342 182.026 791.98 180.244C793.618 178.462 794.008 175.648 792.914 173.487C791.713 171.125 788.606 169.528 786.028 170.488Z" fill="#B0DEEA"/>
<path d="M623.233 137.273C619.757 138.562 619.028 143.66 622.74 145.165C624.311 145.801 626.257 145.365 627.408 144.117C628.558 142.87 628.83 140.893 628.065 139.378C627.218 137.714 625.041 136.6 623.233 137.273Z" fill="#B0DEEA"/>
<path d="M821.889 21.334C813.581 24.4148 811.846 36.5888 820.708 40.183C824.461 41.708 829.113 40.6606 831.855 37.6774C834.597 34.6942 835.249 29.9755 833.421 26.3608C831.414 22.402 826.212 19.732 821.889 21.334Z" fill="#B0DEEA"/>
<path d="M801.946 48.2853C796.986 50.1235 795.949 57.3889 801.243 59.5352C803.481 60.444 806.259 59.8227 807.897 58.041C809.535 56.2593 809.925 53.4456 808.832 51.2839C807.63 48.922 804.524 47.3252 801.946 48.2853Z" fill="#B0DEEA"/>
<path d="M775.733 28.9332C772.257 30.222 771.528 35.3206 775.24 36.8251C776.812 37.4617 778.758 37.0253 779.908 35.7776C781.058 34.5299 781.33 32.5531 780.565 31.0384C779.718 29.3748 777.541 28.2606 775.733 28.9332Z" fill="#B0DEEA"/>
<path d="M838.89 134.705C835.414 135.994 834.685 141.093 838.397 142.597C839.968 143.234 841.914 142.797 843.065 141.55C844.215 140.302 844.487 138.325 843.722 136.811C842.875 135.147 840.698 134.033 838.89 134.705Z" fill="#B0DEEA"/>
<path d="M470.758 95.5236C465.798 97.3618 464.761 104.627 470.055 106.773C472.294 107.682 475.072 107.061 476.71 105.279C478.347 103.498 478.738 100.684 477.644 98.5222C476.443 96.1603 473.336 94.5634 470.758 95.5236Z" fill="#B0DEEA"/>
<path d="M433.763 86.954C430.287 88.2427 429.558 93.3414 433.27 94.8458C434.841 95.4825 436.787 95.0461 437.938 93.7983C439.088 92.5506 439.36 90.5738 438.595 89.0591C437.748 87.3955 435.57 86.2813 433.763 86.954Z" fill="#B0DEEA"/>
<path d="M506.676 192.726C503.199 194.015 502.47 199.114 506.183 200.618C507.754 201.255 509.7 200.818 510.85 199.571C512 198.323 512.272 196.346 511.507 194.831C510.66 193.168 508.483 192.054 506.676 192.726Z" fill="#B0DEEA"/>
<path d="M44.4972 589.218C36.1893 592.299 34.4538 604.473 43.3162 608.067C47.0697 609.592 51.7217 608.545 54.4636 605.561C57.2056 602.578 57.8577 597.86 56.0297 594.245C54.0221 590.286 48.8206 587.616 44.4972 589.218Z" fill="#B0DEEA"/>
<path d="M161.055 457.259C152.747 460.34 151.011 472.514 159.874 476.108C163.627 477.633 168.279 476.586 171.021 473.602C173.763 470.619 174.415 465.901 172.587 462.286C170.58 458.327 165.378 455.657 161.055 457.259Z" fill="#B0DEEA"/>
<path d="M255.019 559.437C246.712 562.518 244.976 574.692 253.838 578.286C257.592 579.811 262.244 578.764 264.986 575.781C267.728 572.797 268.38 568.079 266.552 564.464C264.544 560.505 259.343 557.835 255.019 559.437Z" fill="#B0DEEA"/>
<path d="M154.975 497.56C150.015 499.399 148.978 506.664 154.272 508.81C156.51 509.719 159.288 509.098 160.926 507.316C162.564 505.534 162.955 502.721 161.861 500.559C160.659 498.197 157.553 496.6 154.975 497.56Z" fill="#B0DEEA"/>
<path d="M219.159 582.794C214.199 584.633 213.161 591.898 218.455 594.044C220.694 594.953 223.472 594.332 225.11 592.55C226.748 590.768 227.138 587.955 226.044 585.793C224.843 583.431 221.736 581.834 219.159 582.794Z" fill="#B0DEEA"/>
<path d="M212.458 518.771C208.982 520.06 208.253 525.159 211.965 526.663C213.536 527.3 215.482 526.864 216.633 525.616C217.783 524.368 218.055 522.391 217.29 520.877C216.443 519.213 214.265 518.099 212.458 518.771Z" fill="#B0DEEA"/>
<path d="M391.089 445.963C382.781 449.044 381.045 461.218 389.908 464.812C393.661 466.337 398.313 465.29 401.055 462.307C403.797 459.324 404.449 454.605 402.621 450.99C400.614 447.031 395.412 444.361 391.089 445.963Z" fill="#B0DEEA"/>
<path d="M371.146 472.914C366.186 474.753 365.148 482.018 370.442 484.164C372.681 485.073 375.459 484.452 377.097 482.67C378.735 480.888 379.125 478.075 378.031 475.913C376.83 473.551 373.723 471.954 371.146 472.914Z" fill="#B0DEEA"/>
<path d="M344.933 453.562C341.457 454.851 340.728 459.95 344.44 461.454C346.011 462.091 347.957 461.654 349.107 460.407C350.258 459.159 350.53 457.182 349.765 455.668C348.917 454.004 346.74 452.89 344.933 453.562Z" fill="#B0DEEA"/>
<path d="M408.09 544.958C404.614 546.247 403.884 551.345 407.597 552.85C409.168 553.486 411.114 553.05 412.264 551.802C413.414 550.555 413.687 548.578 412.921 547.063C412.074 545.399 409.897 544.285 408.09 544.958Z" fill="#B0DEEA"/>
<path d="M39.9581 520.153C34.998 521.991 33.9608 529.256 39.2547 531.402C41.4934 532.311 44.2713 531.69 45.9092 529.908C47.5472 528.127 47.9374 525.313 46.8437 523.151C45.6422 520.789 42.5357 519.192 39.9581 520.153Z" fill="#B0DEEA"/>
<path d="M2.96272 511.583C-0.513469 512.872 -1.2426 517.971 2.46979 519.475C4.041 520.112 5.98705 519.675 7.13722 518.428C8.28739 517.18 8.55953 515.203 7.79446 513.688C6.94723 512.025 4.77013 510.91 2.96272 511.583Z" fill="#B0DEEA"/>
<path d="M75.8753 617.355C72.3991 618.644 71.67 623.742 75.3824 625.247C76.9536 625.883 78.8996 625.447 80.0498 624.199C81.2 622.952 81.4721 620.975 80.7071 619.46C79.8598 617.796 77.6827 616.682 75.8753 617.355Z" fill="#B0DEEA"/>
<path d="M468.109 563.032C459.801 566.112 458.066 578.286 466.928 581.881C470.682 583.405 475.334 582.358 478.075 579.375C480.817 576.392 481.469 571.673 479.642 568.058C477.634 564.099 472.432 561.43 468.109 563.032Z" fill="#B0DEEA"/>
<path d="M591.855 457.259C583.547 460.34 581.811 472.514 590.674 476.108C594.427 477.633 599.079 476.586 601.821 473.602C604.563 470.619 605.215 465.901 603.387 462.286C601.38 458.327 596.178 455.657 591.855 457.259Z" fill="#B0DEEA"/>
<path d="M672.983 541.98C664.675 545.06 662.94 557.234 671.802 560.828C675.556 562.353 680.208 561.306 682.95 558.323C685.691 555.34 686.344 550.621 684.516 547.006C682.508 543.047 677.307 540.378 672.983 541.98Z" fill="#B0DEEA"/>
<path d="M585.776 497.56C580.815 499.399 579.778 506.664 585.072 508.81C587.311 509.719 590.089 509.098 591.727 507.316C593.365 505.534 593.755 502.721 592.661 500.559C591.46 498.197 588.353 496.6 585.776 497.56Z" fill="#B0DEEA"/>
<path d="M622.745 560.716C617.785 562.554 616.748 569.819 622.042 571.966C624.281 572.874 627.059 572.253 628.697 570.471C630.334 568.69 630.725 565.876 629.631 563.714C628.429 561.352 625.323 559.756 622.745 560.716Z" fill="#B0DEEA"/>
<path d="M786.028 595.117C781.068 596.955 780.031 604.221 785.325 606.367C787.564 607.276 790.342 606.655 791.98 604.873C793.618 603.091 794.008 600.277 792.914 598.116C791.713 595.754 788.606 594.157 786.028 595.117Z" fill="#B0DEEA"/>
<path d="M606.802 606.573C603.326 607.861 602.597 612.96 606.309 614.465C607.88 615.101 609.826 614.665 610.977 613.417C612.127 612.17 612.399 610.193 611.634 608.678C610.787 607.014 608.609 605.9 606.802 606.573Z" fill="#B0DEEA"/>
<path d="M821.889 445.963C813.581 449.044 811.846 461.218 820.708 464.812C824.461 466.337 829.113 465.29 831.855 462.307C834.597 459.324 835.249 454.605 833.421 450.99C831.414 447.031 826.212 444.361 821.889 445.963Z" fill="#B0DEEA"/>
<path d="M801.946 472.914C796.986 474.753 795.949 482.018 801.243 484.164C803.481 485.073 806.259 484.452 807.897 482.67C809.535 480.888 809.925 478.075 808.832 475.913C807.63 473.551 804.524 471.954 801.946 472.914Z" fill="#B0DEEA"/>
<path d="M775.733 453.562C772.257 454.851 771.528 459.95 775.24 461.454C776.812 462.091 778.758 461.654 779.908 460.407C781.058 459.159 781.33 457.182 780.565 455.668C779.718 454.004 777.541 452.89 775.733 453.562Z" fill="#B0DEEA"/>
<path d="M844.538 611.707C841.062 612.996 840.333 618.095 844.045 619.599C845.617 620.236 847.563 619.799 848.713 618.552C849.863 617.304 850.135 615.327 849.37 613.813C848.523 612.149 846.346 611.035 844.538 611.707Z" fill="#B0DEEA"/>
<path d="M470.758 520.153C465.798 521.991 464.761 529.256 470.055 531.402C472.294 532.311 475.072 531.69 476.71 529.908C478.347 528.127 478.738 525.313 477.644 523.151C476.443 520.789 473.336 519.192 470.758 520.153Z" fill="#B0DEEA"/>
<path d="M394.252 618.737C389.292 620.575 388.254 627.84 393.548 629.987C395.787 630.895 398.565 630.274 400.203 628.492C401.841 626.711 402.231 623.897 401.137 621.735C399.936 619.373 396.829 617.777 394.252 618.737Z" fill="#B0DEEA"/>
<path d="M433.763 511.583C430.287 512.872 429.558 517.971 433.27 519.475C434.841 520.112 436.787 519.675 437.938 518.428C439.088 517.18 439.36 515.203 438.595 513.688C437.748 512.025 435.57 510.91 433.763 511.583Z" fill="#B0DEEA"/>
<path d="M486.65 617.355C483.174 618.644 482.445 623.742 486.157 625.247C487.729 625.883 489.675 625.447 490.825 624.199C491.975 622.952 492.247 620.975 491.482 619.46C490.635 617.796 488.458 616.682 486.65 617.355Z" fill="#B0DEEA"/>
</g>
<defs>
<clipPath id="clip0">
<rect width="861" height="641" fill="white"/>
</clipPath>
</defs>
</svg>
